<svg width="36" height="36" viewBox="0 0 36 36" fill="none" xmlns="http://www.w3.org/2000/svg">
<path d="M22.2849 28.5983C22.2849 29.7803 21.8153 30.9139 20.9795 31.7498C20.1436 32.5856 19.01 33.0552 17.828 33.0552C16.646 33.0552 15.5123 32.5856 14.6765 31.7498C13.8407 30.9139 13.3711 29.7803 13.3711 28.5983" stroke="white" stroke-width="2.22845" stroke-linecap="round" stroke-linejoin="round"/>
<path d="M8.29203 27.1128C7.56489 26.9584 6.92201 26.5372 6.49022 25.9321C6.05842 25.327 5.8691 24.5822 5.95962 23.8444L7.44525 11.7959C7.82457 9.31881 9.08554 7.06197 10.9963 5.4406C12.907 3.81921 15.3389 2.94235 17.8447 2.97123C20.3505 2.94235 22.7824 3.81921 24.693 5.4406C26.6038 7.06197 27.8649 9.31881 28.2441 11.7959L29.7298 23.8444C29.8208 24.5801 29.6335 25.3232 29.2047 25.928C28.776 26.5326 28.1366 26.9553 27.4122 27.1128C21.1244 28.5902 14.5798 28.5902 8.29203 27.1128Z" stroke="white" stroke-width="2.22845" stroke-linecap="round" stroke-linejoin="round"/>
</svg>
