<svg width="25" height="34" viewBox="0 0 25 34" fill="none" xmlns="http://www.w3.org/2000/svg">
<path fill-rule="evenodd" clip-rule="evenodd" d="M12.3636 0C6.50021 0 3.325 3.13551 1.7051 6.23953C0.913364 7.75662 0.49181 9.25648 0.266514 10.3657C0.15317 10.9237 0.0876585 11.392 0.0501503 11.7267C0.0265512 11.9374 0 12.1514 0 12.3636C0 16.571 1.90423 19.0303 3.546 20.328C4.36274 20.9737 4.81732 21.6348 4.88991 22.2154L5.85531 29.9387C6.14533 32.2589 8.11764 34 10.4559 34H14.2713C16.6096 34 18.5819 32.2589 18.872 29.9387L19.8373 22.2154C19.9099 21.6348 20.3645 20.9737 21.1812 20.328C22.823 19.0303 24.7273 16.571 24.7273 12.3636C24.7273 12.1514 24.7007 11.9374 24.677 11.7267C24.6396 11.392 24.5741 10.9237 24.4607 10.3657C24.2355 9.25648 23.8139 7.75662 23.0222 6.23953C21.4022 3.13551 18.2271 0 12.3636 0ZM5.46278 17.9033C3.76799 16.5636 2.88254 14.2066 3.12183 12.0709C3.15063 11.8139 3.20291 11.4371 3.29557 10.9809C3.48228 10.0617 3.8256 8.85701 4.4453 7.66957C5.64827 5.36449 7.88214 3.09091 12.3636 3.09091C16.8451 3.09091 19.0789 5.36449 20.2819 7.66957C20.9017 8.85701 21.2451 10.0617 21.4317 10.9809C21.5243 11.4371 21.5767 11.8139 21.6055 12.0709C21.8447 14.2066 20.9593 16.5636 19.2646 17.9033C18.2136 18.7338 16.993 20.0507 16.7703 21.8322L16.4084 24.7273H8.31884L7.95696 21.8322C7.73427 20.0507 6.51361 18.7338 5.46278 17.9033ZM8.7052 27.8182L8.92236 29.5553C9.01902 30.3288 9.6764 30.9091 10.4559 30.9091H14.2713C15.0509 30.9091 15.7083 30.3288 15.8049 29.5553L16.022 27.8182H8.7052Z" fill="white"/>
</svg>
