<svg width="40" height="40" viewBox="0 0 40 40" fill="none" xmlns="http://www.w3.org/2000/svg">
<path d="M12.833 27.1667C13.1386 27.4723 13.5275 27.625 13.9997 27.625C14.4719 27.625 14.8608 27.4723 15.1663 27.1667L19.9997 22.3334L24.8747 27.2084C25.1802 27.5139 25.5625 27.6595 26.0213 27.645C26.4791 27.6317 26.8608 27.4723 27.1663 27.1667C27.4719 26.8612 27.6247 26.4723 27.6247 26C27.6247 25.5278 27.4719 25.1389 27.1663 24.8334L22.333 20L27.208 15.125C27.5136 14.8195 27.6591 14.4373 27.6447 13.9784C27.6313 13.5206 27.4719 13.1389 27.1663 12.8334C26.8608 12.5278 26.4719 12.375 25.9997 12.375C25.5275 12.375 25.1386 12.5278 24.833 12.8334L19.9997 17.6667L15.1247 12.7917C14.8191 12.4862 14.4375 12.34 13.9797 12.3534C13.5208 12.3678 13.1386 12.5278 12.833 12.8334C12.5275 13.1389 12.3747 13.5278 12.3747 14C12.3747 14.4723 12.5275 14.8612 12.833 15.1667L17.6663 20L12.7913 24.875C12.4858 25.1806 12.3402 25.5623 12.3547 26.02C12.368 26.4789 12.5275 26.8612 12.833 27.1667ZM19.9997 36.6667C17.6941 36.6667 15.5275 36.2289 13.4997 35.3534C11.4719 34.4789 9.70801 33.2917 8.20801 31.7917C6.70801 30.2917 5.52079 28.5278 4.64634 26.5C3.77079 24.4723 3.33301 22.3056 3.33301 20C3.33301 17.6945 3.77079 15.5278 4.64634 13.5C5.52079 11.4723 6.70801 9.70837 8.20801 8.20837C9.70801 6.70837 11.4719 5.5206 13.4997 4.64504C15.5275 3.7706 17.6941 3.33337 19.9997 3.33337C22.3052 3.33337 24.4719 3.7706 26.4997 4.64504C28.5275 5.5206 30.2913 6.70837 31.7913 8.20837C33.2913 9.70837 34.4786 11.4723 35.353 13.5C36.2286 15.5278 36.6663 17.6945 36.6663 20C36.6663 22.3056 36.2286 24.4723 35.353 26.5C34.4786 28.5278 33.2913 30.2917 31.7913 31.7917C30.2913 33.2917 28.5275 34.4789 26.4997 35.3534C24.4719 36.2289 22.3052 36.6667 19.9997 36.6667ZM19.9997 33.3334C23.6941 33.3334 26.8402 32.035 29.438 29.4384C32.0347 26.8406 33.333 23.6945 33.333 20C33.333 16.3056 32.0347 13.1595 29.438 10.5617C26.8402 7.96504 23.6941 6.66671 19.9997 6.66671C16.3052 6.66671 13.1597 7.96504 10.563 10.5617C7.96523 13.1595 6.66634 16.3056 6.66634 20C6.66634 23.6945 7.96523 26.8406 10.563 29.4384C13.1597 32.035 16.3052 33.3334 19.9997 33.3334Z" fill="#939393"/>
</svg>
