<svg width="22" height="29" viewBox="0 0 22 29" fill="none" xmlns="http://www.w3.org/2000/svg">
<path d="M13.1059 21.2294C14.629 21.751 15.9738 22.0832 17.9061 22.677C17.1638 32.0567 8.29426 28.3317 13.1059 21.2294ZM21.025 12.613C20.925 9.79666 20.429 6.10227 16.4777 6.68115C14.6254 7.16455 13.2568 9.19878 12.6132 12.7085C12.2596 14.6382 12.4652 17.3468 12.8822 18.9705C13.263 20.1147 13.1335 20.0444 13.5427 20.2617C15.1266 20.6185 16.6946 21.0135 18.2914 21.4163C19.9136 20.2707 21.2458 14.1891 21.025 12.613ZM8.83107 12.3968C9.24775 10.7729 9.45333 8.06431 9.09997 6.13481C8.45678 2.62496 7.08803 0.590406 5.23544 0.107333C1.28415 -0.471543 0.7881 3.22279 0.688079 6.03928C0.467275 7.61509 1.79971 13.6971 3.42202 14.8424C5.01869 14.4397 6.5865 14.045 8.17091 13.6879C8.57965 13.4708 8.45016 13.5411 8.83107 12.3968ZM3.80682 16.1035C4.54888 25.4831 13.4184 21.7581 8.60687 14.6559C7.08382 15.1776 5.73906 15.5097 3.80682 16.1035Z" fill="white"/>
</svg>
