<svg width="23" height="23" viewBox="0 0 23 23" fill="none" xmlns="http://www.w3.org/2000/svg">
<g clip-path="url(#clip0_384_5316)">
<path d="M10.1336 7.85563C8.65453 8.54465 7.39657 9.73281 6.13768 11.47C5.95814 11.7177 5.95091 11.8682 6.13535 12.0013C6.26501 12.0949 6.34036 12.065 6.52921 11.8635C6.55449 11.8364 6.55449 11.8364 6.58034 11.8083C6.7436 11.6315 6.87511 11.4815 7.15604 11.1553C8.08428 10.0773 8.53767 9.63361 9.24232 9.22782C9.8521 8.87668 10.388 9.39272 10.2859 10.0531C10.2573 10.2385 10.208 10.3753 10.081 10.6691C10.0304 10.786 10.0091 10.8368 9.9854 10.8991C9.75639 11.5012 9.56349 12.0034 9.15929 13.0523L9.13995 13.1024C9.01774 13.4196 9.01774 13.4196 8.89563 13.7366C8.36626 15.1125 8.04503 15.9561 7.7136 16.8484L7.69416 16.9007C7.60522 17.1398 7.56333 17.2527 7.51703 17.3782C7.13726 18.4081 6.92008 19.0773 6.7549 19.789C6.7291 19.8997 6.7291 19.8997 6.70295 20.0123C6.60988 20.4149 6.56007 20.6743 6.53223 20.941C6.48409 21.4021 6.5228 21.7797 6.6677 22.097C6.83167 22.4561 7.18398 22.713 7.58596 22.7713C8.25559 22.8685 8.90172 22.8616 9.45512 22.7357C9.76657 22.6649 10.0747 22.5722 10.377 22.4586C11.2524 22.1294 12.0958 21.6159 12.9126 20.937C13.6273 20.3414 14.3036 19.6157 15.0125 18.7139C15.0743 18.6358 15.0743 18.6358 15.1359 18.5579C15.3501 18.2848 15.455 18.1075 15.4942 17.9201C15.5368 17.7168 15.3648 17.5107 15.2274 17.5796C15.1595 17.6137 15.0885 17.6842 14.9802 17.8208C14.9028 17.9201 14.8607 17.9732 14.8185 18.021C14.6504 18.2113 14.4729 18.4062 14.2805 18.612C13.9634 18.9513 13.6412 19.2832 13.1739 19.7558C12.9359 19.9964 12.6365 20.2068 12.3147 20.3651C11.7996 20.6182 11.3349 20.2991 11.3907 19.7282C11.4275 19.3512 11.5188 18.9615 11.6554 18.5848C11.9536 17.7613 12.1975 17.0956 12.737 15.6285C12.971 14.9922 13.072 14.7173 13.1982 14.3732C13.5723 13.3536 13.8709 12.5327 14.1551 11.7407C14.5061 10.7623 14.7044 10.033 14.7962 9.27994C14.8655 8.71191 14.7075 8.16866 14.3471 7.79517C13.9474 7.38112 13.379 7.19039 12.6712 7.19876C11.8879 7.20808 10.9742 7.46399 10.1336 7.85563ZM15.4948 1.10285C14.0873 0.555216 12.3983 1.49604 12.1155 2.98618C11.9104 4.06621 12.3139 4.99868 13.1374 5.38925C14.7698 6.16343 16.7289 4.92292 16.729 3.11483C16.7291 2.10901 16.2995 1.41597 15.4948 1.10285Z" fill="white"/>
</g>
<defs>
<clipPath id="clip0_384_5316">
<rect width="21.8926" height="21.8926" fill="white" transform="translate(0.414062 0.946289)"/>
</clipPath>
</defs>
</svg>
