<svg width="21" height="25" viewBox="0 0 21 25" fill="none" xmlns="http://www.w3.org/2000/svg">
<path d="M10.5943 24.946L3.41232 17.764C1.99188 16.3436 1.02455 14.5338 0.632656 12.5636C0.240763 10.5933 0.441909 8.55114 1.21066 6.69523C1.97941 4.83932 3.28123 3.25306 4.95151 2.13702C6.62178 1.02098 8.58549 0.425293 10.5943 0.425293C12.6031 0.425293 14.5668 1.02098 16.2371 2.13702C17.9074 3.25306 19.2092 4.83932 19.978 6.69523C20.7467 8.55114 20.9479 10.5933 20.556 12.5636C20.1641 14.5338 19.1968 16.3436 17.7763 17.764L10.5943 24.946ZM16.1806 16.1683C17.2853 15.0634 18.0376 13.6558 18.3423 12.1235C18.6471 10.5911 18.4906 9.00274 17.8927 7.5593C17.2947 6.11586 16.2822 4.88213 14.9831 4.01414C13.684 3.14614 12.1567 2.68284 10.5943 2.68284C9.03193 2.68284 7.50463 3.14614 6.20554 4.01414C4.90645 4.88213 3.89392 6.11586 3.29598 7.5593C2.69805 9.00274 2.54156 10.5911 2.84631 12.1235C3.15105 13.6558 3.90335 15.0634 5.00807 16.1683L10.5943 21.7545L16.1806 16.1683V16.1683ZM10.5943 12.8391C9.9957 12.8391 9.42161 12.6013 8.99833 12.178C8.57505 11.7547 8.33725 11.1806 8.33725 10.582C8.33725 9.9834 8.57505 9.40931 8.99833 8.98603C9.42161 8.56275 9.9957 8.32495 10.5943 8.32495C11.1929 8.32495 11.767 8.56275 12.1903 8.98603C12.6136 9.40931 12.8514 9.9834 12.8514 10.582C12.8514 11.1806 12.6136 11.7547 12.1903 12.178C11.767 12.6013 11.1929 12.8391 10.5943 12.8391Z" fill="black"/>
</svg>
