<svg width="211" height="77" viewBox="0 0 211 77" fill="none" xmlns="http://www.w3.org/2000/svg">
<g clip-path="url(#clip0_648_4077)">
<path d="M109.434 53.1081L108.72 55.9233C108.89 55.9484 109.025 55.9599 109.128 55.9599C109.283 55.9599 109.476 55.9324 109.704 55.8798L109.652 56.1407C109.416 56.191 109.231 56.2139 109.1 56.2139C108.963 56.2139 108.759 56.2025 108.491 56.1773C108.256 56.1521 108.059 56.1407 107.903 56.1407C107.622 56.1407 107.294 56.1819 106.924 56.262L107.004 55.9645C107.393 55.866 107.645 55.7676 107.761 55.6738C107.937 55.5227 108.075 55.2549 108.169 54.8727L108.91 51.9088C109.002 51.5311 109.048 51.3068 109.048 51.2405C109.048 51.1764 109.025 51.1283 108.981 51.0986C108.938 51.0665 108.848 51.0528 108.718 51.0551L108.787 50.801C109.141 50.7965 109.569 50.7324 110.066 50.6042C110.023 50.7392 109.968 50.9361 109.901 51.197L109.503 52.7602C109.672 52.7945 109.817 52.8128 109.933 52.8128C110.375 52.8128 110.755 52.6572 111.069 52.3482C111.384 52.0392 111.54 51.673 111.54 51.2473C111.54 50.9178 111.414 50.6477 111.16 50.4371C110.908 50.2243 110.565 50.119 110.13 50.119C109.576 50.119 109.034 50.254 108.503 50.5218C107.974 50.7896 107.576 51.1237 107.31 51.522C107.045 51.9202 106.912 52.3368 106.912 52.7716C106.912 53.1012 107.047 53.3827 107.32 53.6208C107.457 53.7375 107.542 53.8222 107.574 53.8748C107.606 53.9275 107.622 53.9847 107.622 54.0442C107.622 54.1174 107.594 54.1838 107.539 54.2387C107.484 54.2937 107.418 54.3211 107.34 54.3211C107.148 54.3211 106.979 54.209 106.827 53.987C106.635 53.6963 106.539 53.3393 106.539 52.9158C106.539 52.3711 106.69 51.863 106.99 51.3938C107.29 50.9246 107.745 50.5355 108.356 50.2265C108.965 49.9199 109.608 49.7642 110.283 49.7642C110.913 49.7642 111.43 49.8832 111.838 50.119C112.245 50.3547 112.449 50.7049 112.449 51.1695C112.449 51.6044 112.263 52.0095 111.89 52.3848C111.517 52.7602 111.004 53.0005 110.352 53.1058C110.515 53.4308 110.618 53.6505 110.666 53.7627C110.739 53.9526 110.853 54.2754 111.004 54.7285C111.361 55.7882 111.73 56.5344 112.112 56.9692C112.396 57.2851 112.7 57.4453 113.03 57.4453C113.369 57.4453 113.586 57.2919 113.682 56.9875C113.739 56.7953 113.792 56.674 113.84 56.6282C113.907 56.5641 113.982 56.5343 114.069 56.5343C114.154 56.5343 114.225 56.5641 114.284 56.6236C114.344 56.6831 114.371 56.7564 114.371 56.841C114.371 57.0608 114.25 57.269 114.01 57.4659C113.769 57.6627 113.46 57.7634 113.083 57.7634C112.739 57.7634 112.412 57.681 112.098 57.5139C111.785 57.3491 111.483 57.0768 111.188 56.6991C110.892 56.3215 110.636 55.8683 110.416 55.3396C110.306 55.0741 110.146 54.5889 109.936 53.8817C109.807 53.4514 109.73 53.1928 109.698 53.1081L109.567 53.0966C109.537 53.0989 109.492 53.1012 109.434 53.1081Z" fill="white"/>
<path d="M115.739 54.8109L115.913 55.0444C115.045 55.8683 114.304 56.2803 113.686 56.2803C113.434 56.2803 113.244 56.1956 113.111 56.0262C112.978 55.8569 112.912 55.5845 112.912 55.2092C112.912 54.4516 113.141 53.6986 113.601 52.9502C114.116 52.0987 114.734 51.673 115.453 51.673C115.704 51.673 115.897 51.7348 116.027 51.8607C116.16 51.9866 116.226 52.1583 116.226 52.378C116.226 52.6068 116.146 52.8334 115.988 53.0577C115.828 53.2797 115.544 53.5132 115.134 53.7535C114.929 53.8702 114.491 54.0808 113.818 54.3852C113.786 54.5752 113.77 54.7583 113.77 54.9322C113.77 55.184 113.809 55.3579 113.889 55.4563C113.97 55.5548 114.084 55.6051 114.237 55.6051C114.381 55.6051 114.542 55.5639 114.713 55.4838C114.949 55.3694 115.29 55.1474 115.739 54.8109ZM113.883 54.0419C114.452 53.7878 114.88 53.5132 115.167 53.2202C115.361 53.0142 115.457 52.8128 115.457 52.6114C115.457 52.4604 115.418 52.3391 115.338 52.2475C115.258 52.1582 115.155 52.1125 115.027 52.1125C114.896 52.1125 114.768 52.1628 114.645 52.2612C114.478 52.3917 114.338 52.5908 114.226 52.854C114.063 53.2431 113.949 53.6391 113.883 54.0419Z" fill="white"/>
<path d="M120.731 55.0444L120.88 55.2458C120.406 55.6463 120.054 55.9095 119.825 56.0423C119.507 56.2231 119.255 56.3123 119.072 56.3123C118.987 56.3123 118.919 56.2895 118.866 56.2414C118.813 56.1933 118.786 56.1407 118.786 56.0789C118.786 56.0171 118.804 55.9187 118.843 55.7813L119.029 55.1336C118.605 55.5914 118.25 55.9004 117.969 56.0629C117.685 56.2254 117.431 56.3078 117.204 56.3078C117.017 56.3078 116.859 56.2254 116.733 56.0606C116.605 55.8958 116.543 55.6555 116.543 55.335C116.543 54.8315 116.715 54.2548 117.06 53.6025C117.406 52.9502 117.788 52.4672 118.211 52.1537C118.635 51.8401 119.019 51.6845 119.37 51.6845C119.447 51.6845 119.564 51.6959 119.72 51.7211C119.887 51.0322 120.045 50.531 120.198 50.2151C120.349 49.8993 120.546 49.6269 120.786 49.398C121.027 49.1691 121.301 48.9906 121.61 48.8647C121.919 48.7389 122.208 48.6771 122.478 48.6771C122.62 48.6771 122.732 48.7137 122.816 48.7892C122.901 48.8647 122.945 48.9563 122.945 49.0707C122.945 49.1806 122.906 49.2699 122.828 49.3385C122.75 49.4072 122.642 49.4415 122.51 49.4415C122.42 49.4415 122.256 49.4232 122.015 49.3889C121.775 49.3545 121.61 49.3362 121.521 49.3362C121.397 49.3362 121.288 49.3751 121.194 49.4507C121.1 49.5262 121.011 49.6887 120.926 49.9405C120.869 50.1007 120.741 50.6065 120.539 51.4625L119.788 54.6667C119.701 55.0444 119.656 55.2961 119.656 55.4197C119.656 55.5548 119.706 55.6211 119.809 55.6211C119.873 55.6211 119.946 55.5982 120.031 55.5525C120.152 55.4815 120.386 55.3122 120.731 55.0444ZM119.608 52.3024C119.324 52.2384 119.125 52.2063 119.008 52.2063C118.77 52.2063 118.539 52.3002 118.312 52.4855C118.086 52.6709 117.868 53.0326 117.658 53.5658C117.447 54.1014 117.342 54.566 117.342 54.962C117.342 55.1428 117.39 55.2916 117.488 55.406C117.587 55.5204 117.697 55.5777 117.82 55.5777C117.969 55.5777 118.138 55.5113 118.328 55.3808C118.601 55.1863 118.816 54.9482 118.976 54.669C119.072 54.4928 119.2 54.0579 119.363 53.3667L119.608 52.3024Z" fill="white"/>
<path d="M124.207 54.8109L124.381 55.0444C123.516 55.8683 122.772 56.2803 122.154 56.2803C121.903 56.2803 121.713 56.1956 121.58 56.0262C121.447 55.8569 121.381 55.5845 121.381 55.2092C121.381 54.4516 121.61 53.6986 122.07 52.9502C122.587 52.0987 123.203 51.673 123.921 51.673C124.173 51.673 124.363 51.7348 124.496 51.8607C124.629 51.9866 124.695 52.1583 124.695 52.378C124.695 52.6068 124.615 52.8334 124.457 53.0577C124.297 53.2797 124.013 53.5132 123.603 53.7535C123.397 53.8702 122.96 54.0808 122.287 54.3852C122.255 54.5752 122.239 54.7583 122.239 54.9322C122.239 55.184 122.278 55.3579 122.358 55.4563C122.438 55.5548 122.553 55.6051 122.706 55.6051C122.85 55.6051 123.01 55.5639 123.182 55.4838C123.418 55.3694 123.759 55.1474 124.207 54.8109ZM122.351 54.0419C122.921 53.7878 123.349 53.5132 123.635 53.2202C123.83 53.0142 123.926 52.8128 123.926 52.6114C123.926 52.4604 123.887 52.3391 123.807 52.2475C123.727 52.1582 123.624 52.1125 123.496 52.1125C123.365 52.1125 123.237 52.1628 123.113 52.2612C122.946 52.3917 122.807 52.5908 122.695 52.854C122.534 53.2431 122.418 53.6391 122.351 54.0419Z" fill="white"/>
<path d="M125.297 52.0278H126.565C126.774 51.1444 127.012 50.4875 127.282 50.0549C127.55 49.6246 127.9 49.2836 128.332 49.0341C128.765 48.7847 129.17 48.6611 129.552 48.6611C129.767 48.6611 129.93 48.7046 130.04 48.7892C130.15 48.8739 130.205 48.9746 130.205 49.0914C130.205 49.1966 130.168 49.2859 130.092 49.3569C130.017 49.4278 129.921 49.4621 129.799 49.4621C129.676 49.4621 129.442 49.4255 129.099 49.35C128.93 49.3157 128.797 49.2973 128.701 49.2973C128.467 49.2973 128.257 49.4415 128.069 49.7299C127.881 50.0183 127.73 50.4074 127.618 50.8995L127.353 52.0301H128.758L128.673 52.4078H127.25L126.419 55.7905C126.16 56.8205 125.748 57.5986 125.181 58.1296C124.613 58.6606 123.997 58.9261 123.334 58.9261C123.112 58.9261 122.942 58.8826 122.828 58.7957C122.713 58.7087 122.656 58.6011 122.656 58.4752C122.656 58.3654 122.695 58.2784 122.775 58.212C122.855 58.1457 122.97 58.1136 123.119 58.1136C123.192 58.1136 123.302 58.1228 123.448 58.1411C123.695 58.1731 123.933 58.1891 124.158 58.1891C124.508 58.1891 124.762 58.1067 124.922 57.942C125.082 57.7772 125.24 57.3743 125.398 56.7358L126.474 52.4078H125.206L125.297 52.0278Z" fill="white"/>
<path d="M128.763 52.9135L128.529 52.7327C128.882 52.3436 129.204 52.0667 129.495 51.9019C129.786 51.7371 130.035 51.6547 130.239 51.6547C130.351 51.6547 130.438 51.6799 130.498 51.728C130.557 51.7783 130.587 51.8447 130.587 51.9294C130.587 52.0324 130.472 52.4672 130.244 53.234C129.871 54.4882 129.683 55.2458 129.683 55.5044C129.683 55.5547 129.694 55.5959 129.719 55.628C129.745 55.6623 129.77 55.6783 129.8 55.6783C129.912 55.6783 130.202 55.4586 130.669 55.0215L130.875 55.2229C130.39 55.6783 130.038 55.9713 129.816 56.0972C129.594 56.2254 129.41 56.2871 129.269 56.2871C129.145 56.2871 129.047 56.2482 128.973 56.1704C128.9 56.0926 128.863 55.985 128.863 55.8477C128.863 55.406 129.129 54.3257 129.66 52.6068C129.685 52.5244 129.697 52.4535 129.697 52.3894C129.697 52.3185 129.665 52.2841 129.6 52.2841C129.529 52.2841 129.449 52.3116 129.36 52.3688C129.273 52.4283 129.072 52.6091 128.763 52.9135ZM130.846 49.4026C130.955 49.4026 131.045 49.4392 131.116 49.5102C131.187 49.5834 131.221 49.6749 131.221 49.7894C131.221 49.945 131.166 50.0823 131.058 50.2014C130.951 50.3204 130.829 50.3799 130.694 50.3799C130.589 50.3799 130.5 50.3433 130.429 50.2677C130.358 50.1922 130.324 50.0961 130.324 49.9771C130.324 49.8169 130.374 49.6818 130.477 49.572C130.582 49.4575 130.704 49.4026 130.846 49.4026Z" fill="white"/>
<path d="M131.357 52.9296L131.176 52.7442C131.629 52.3116 131.991 52.0232 132.258 51.8813C132.526 51.7394 132.757 51.6685 132.947 51.6685C133.021 51.6685 133.08 51.6845 133.121 51.7165C133.165 51.7486 133.185 51.7852 133.185 51.8287C133.185 51.8607 133.176 51.9179 133.158 51.998L132.92 53.0646C133.279 52.6641 133.732 52.291 134.275 51.9454C134.563 51.7646 134.803 51.6753 134.989 51.6753C135.126 51.6753 135.234 51.7188 135.312 51.8081C135.389 51.8973 135.428 52.0232 135.428 52.1903C135.428 52.3002 135.412 52.4237 135.38 52.5611C135.323 52.7899 135.177 53.2912 134.936 54.0625C134.71 54.7834 134.597 55.2641 134.597 55.4998C134.597 55.5731 134.609 55.6257 134.629 55.6623C134.65 55.6989 134.68 55.7173 134.719 55.7173C134.822 55.7173 134.982 55.6188 135.202 55.4197C135.357 55.2778 135.513 55.1474 135.669 55.0283L135.801 55.2183C135.476 55.5776 135.138 55.866 134.787 56.0835C134.565 56.2254 134.38 56.294 134.236 56.294C134.101 56.294 133.998 56.246 133.922 56.1475C133.847 56.0491 133.81 55.8912 133.81 55.6738C133.81 55.3602 134.007 54.5752 134.398 53.3255C134.52 52.8792 134.579 52.6206 134.579 52.545C134.579 52.4352 134.513 52.3803 134.382 52.3803C134.24 52.3803 134.06 52.4558 133.835 52.6023C133.503 52.822 133.226 53.0806 133.002 53.3782C132.86 53.5681 132.741 53.8748 132.647 54.2914L132.217 56.1453H131.428C131.576 55.6143 131.704 55.1062 131.814 54.6209L132.286 52.6023C132.304 52.5199 132.313 52.4627 132.313 52.426C132.313 52.3299 132.277 52.2818 132.208 52.2818C132.151 52.2818 132.071 52.3185 131.963 52.394C131.753 52.5405 131.547 52.719 131.357 52.9296Z" fill="white"/>
<path d="M136.36 52.9135L136.127 52.7327C136.479 52.3436 136.802 52.0667 137.093 51.9019C137.383 51.7371 137.633 51.6547 137.837 51.6547C137.949 51.6547 138.036 51.6799 138.095 51.728C138.155 51.7783 138.185 51.8447 138.185 51.9294C138.185 52.0324 138.07 52.4672 137.841 53.234C137.468 54.4882 137.28 55.2458 137.28 55.5044C137.28 55.5547 137.292 55.5959 137.317 55.628C137.342 55.6623 137.367 55.6783 137.397 55.6783C137.509 55.6783 137.8 55.4586 138.267 55.0215L138.473 55.2229C137.988 55.6783 137.635 55.9713 137.413 56.0972C137.191 56.2254 137.008 56.2871 136.866 56.2871C136.743 56.2871 136.644 56.2482 136.571 56.1704C136.498 56.0926 136.461 55.985 136.461 55.8477C136.461 55.406 136.727 54.3257 137.258 52.6068C137.283 52.5244 137.294 52.4535 137.294 52.3894C137.294 52.3185 137.262 52.2841 137.198 52.2841C137.127 52.2841 137.047 52.3116 136.958 52.3688C136.873 52.4283 136.672 52.6091 136.36 52.9135ZM138.445 49.4026C138.555 49.4026 138.645 49.4392 138.716 49.5102C138.786 49.5834 138.821 49.6749 138.821 49.7894C138.821 49.945 138.766 50.0823 138.658 50.2014C138.551 50.3204 138.429 50.3799 138.294 50.3799C138.189 50.3799 138.1 50.3433 138.029 50.2677C137.958 50.1922 137.924 50.0961 137.924 49.9771C137.924 49.8169 137.974 49.6818 138.077 49.572C138.18 49.4575 138.304 49.4026 138.445 49.4026Z" fill="white"/>
<path d="M138.954 52.9296L138.773 52.7442C139.227 52.3116 139.588 52.0232 139.856 51.8813C140.124 51.7394 140.355 51.6685 140.545 51.6685C140.618 51.6685 140.678 51.6845 140.719 51.7165C140.762 51.7486 140.783 51.7852 140.783 51.8287C140.783 51.8607 140.774 51.9179 140.755 51.998L140.517 53.0646C140.877 52.6641 141.33 52.291 141.872 51.9454C142.161 51.7646 142.401 51.6753 142.586 51.6753C142.724 51.6753 142.831 51.7188 142.909 51.8081C142.987 51.8973 143.026 52.0232 143.026 52.1903C143.026 52.3002 143.01 52.4237 142.978 52.5611C142.921 52.7899 142.774 53.2912 142.534 54.0625C142.307 54.7834 142.195 55.2641 142.195 55.4998C142.195 55.5731 142.207 55.6257 142.227 55.6623C142.248 55.6989 142.278 55.7173 142.316 55.7173C142.419 55.7173 142.58 55.6188 142.799 55.4197C142.955 55.2778 143.111 55.1474 143.266 55.0283L143.399 55.2183C143.074 55.5776 142.735 55.866 142.385 56.0835C142.163 56.2254 141.978 56.294 141.833 56.294C141.698 56.294 141.595 56.246 141.52 56.1475C141.444 56.0491 141.408 55.8912 141.408 55.6738C141.408 55.3602 141.605 54.5752 141.996 53.3255C142.117 52.8792 142.177 52.6206 142.177 52.545C142.177 52.4352 142.11 52.3803 141.98 52.3803C141.838 52.3803 141.657 52.4558 141.433 52.6023C141.101 52.822 140.824 53.0806 140.6 53.3782C140.458 53.5681 140.339 53.8748 140.245 54.2914L139.815 56.1453H139.025C139.174 55.6143 139.302 55.1062 139.412 54.6209L139.883 52.6023C139.902 52.5199 139.911 52.4627 139.911 52.426C139.911 52.3299 139.874 52.2818 139.806 52.2818C139.748 52.2818 139.668 52.3185 139.561 52.394C139.35 52.5405 139.144 52.719 138.954 52.9296Z" fill="white"/>
<path d="M147.362 51.6456L147.787 51.5495C147.531 52.378 147.293 53.2066 147.08 54.0374C146.924 54.6325 146.817 55.1268 146.757 55.5228C146.725 55.7219 146.707 55.9714 146.705 56.2758C146.698 56.7839 146.641 57.1958 146.535 57.5071C146.387 57.942 146.11 58.2922 145.705 58.5577C145.299 58.8232 144.819 58.9559 144.265 58.9559C143.787 58.9559 143.411 58.8438 143.137 58.6195C142.862 58.3952 142.725 58.1365 142.725 57.8481C142.725 57.5621 142.834 57.2943 143.054 57.0471C143.217 56.8594 143.558 56.6328 144.075 56.3673C144.338 56.23 144.583 56.0881 144.814 55.9439C144.551 56.0789 144.347 56.1453 144.201 56.1453C144.07 56.1453 143.954 56.0835 143.851 55.9622C143.75 55.8409 143.7 55.6784 143.7 55.477C143.7 54.827 143.894 54.1793 144.281 53.5384C144.668 52.8976 145.135 52.4146 145.679 52.0942C146.016 51.8951 146.437 51.7967 146.943 51.7967C147.041 51.7967 147.165 51.8013 147.309 51.8081L147.362 51.6456ZM146.05 55.3214C145.81 55.5365 145.345 55.8821 144.659 56.3559C144.052 56.7656 143.681 57.0608 143.542 57.2416C143.404 57.4247 143.333 57.6193 143.333 57.8253C143.333 58.0267 143.423 58.2075 143.601 58.37C143.78 58.5302 143.997 58.6103 144.251 58.6103C144.492 58.6103 144.725 58.5508 144.952 58.4318C145.178 58.3128 145.375 58.1411 145.544 57.9168C145.711 57.6925 145.828 57.4385 145.892 57.1547C145.956 56.8708 145.991 56.4978 145.993 56.0309C146 55.9279 146.018 55.6921 146.05 55.3214ZM146.769 52.4307C146.599 52.3986 146.448 52.3826 146.318 52.3826C145.981 52.3826 145.695 52.4719 145.455 52.6481C145.215 52.8243 145.011 53.1219 144.842 53.5384C144.606 54.1289 144.487 54.6256 144.487 55.0284C144.487 55.1955 144.533 55.3351 144.627 55.4472C144.72 55.5594 144.826 55.6166 144.942 55.6166C145.084 55.6166 145.258 55.5479 145.467 55.4129C145.675 55.2779 145.844 55.1062 145.977 54.9002C146.11 54.6942 146.245 54.3418 146.382 53.8405L146.769 52.4307Z" fill="white"/>
<path d="M153.007 56.3581L152.814 53.7925C152.775 53.2706 152.755 52.925 152.755 52.7602C152.755 52.2819 152.823 51.8424 152.958 51.4396C153.094 51.0368 153.336 50.6065 153.684 50.1465C153.272 50.1465 152.851 50.2449 152.421 50.444C151.993 50.6431 151.677 50.872 151.478 51.1306C151.279 51.3893 151.178 51.6502 151.178 51.9111C151.178 52.0324 151.214 52.1583 151.288 52.2933C151.382 52.4627 151.427 52.5931 151.427 52.6801C151.427 52.7625 151.402 52.8266 151.354 52.877C151.306 52.9273 151.242 52.9502 151.164 52.9502C151.052 52.9502 150.954 52.893 150.869 52.7762C150.764 52.6206 150.711 52.4284 150.711 52.1972C150.711 51.7669 150.873 51.3504 151.198 50.9498C151.523 50.5493 151.97 50.254 152.533 50.0641C152.897 49.9405 153.425 49.8558 154.121 49.81C154.309 49.7963 154.499 49.778 154.693 49.7574C154.215 50.4577 153.904 51.0414 153.76 51.5106C153.615 51.9798 153.542 52.6137 153.542 53.4171C153.542 54.0328 153.574 54.5958 153.638 55.1039L154.659 54.0167L155.529 53.1264C156.408 52.2247 156.998 51.5151 157.303 50.9956C157.534 50.6042 157.648 50.2472 157.648 49.9245C157.648 49.7482 157.607 49.5537 157.527 49.3408C157.474 49.2058 157.447 49.1051 157.447 49.0341C157.447 48.938 157.483 48.8556 157.554 48.7847C157.628 48.7137 157.712 48.6794 157.811 48.6794C157.946 48.6794 158.058 48.748 158.149 48.8854C158.241 49.0227 158.287 49.2378 158.287 49.5331C158.287 49.8192 158.227 50.1236 158.106 50.4417C157.985 50.7621 157.733 51.1695 157.346 51.6639C156.959 52.1583 156.364 52.8152 155.556 53.6322C154.719 54.4837 153.865 55.3923 153.007 56.3581Z" fill="white"/>
<path d="M161.089 51.593L161.439 51.5198L161.041 52.861C160.883 53.3943 160.732 54.0099 160.59 54.7057C160.512 55.0834 160.473 55.3283 160.473 55.4381C160.473 55.548 160.517 55.6029 160.606 55.6029C160.663 55.6029 160.752 55.5663 160.876 55.4908C161.096 55.3603 161.306 55.1978 161.508 55.0033L161.677 55.2092C161.274 55.5777 161.016 55.7997 160.903 55.8776C160.677 56.0332 160.462 56.1476 160.256 56.2232C160.121 56.2735 159.99 56.2964 159.864 56.2964C159.773 56.2964 159.704 56.2758 159.658 56.2323C159.613 56.1911 159.59 56.127 159.59 56.0469C159.59 55.9943 159.603 55.921 159.631 55.8295L159.844 55.1085C159.539 55.4724 159.178 55.786 158.757 56.0469C158.498 56.2094 158.262 56.2918 158.047 56.2918C157.841 56.2918 157.685 56.2186 157.576 56.0744C157.427 55.8798 157.354 55.6258 157.354 55.3099C157.354 54.9346 157.454 54.518 157.653 54.058C157.852 53.598 158.12 53.1814 158.457 52.8061C158.793 52.4307 159.146 52.156 159.516 51.9775C159.802 51.8425 160.171 51.7761 160.62 51.7761C160.732 51.7761 160.848 51.783 160.965 51.7967L161.089 51.593ZM160.432 52.4032C160.242 52.3643 160.079 52.346 159.949 52.346C159.631 52.346 159.354 52.433 159.116 52.6092C158.878 52.7832 158.658 53.099 158.457 53.5522C158.253 54.0076 158.152 54.4608 158.152 54.9117C158.152 55.152 158.193 55.326 158.274 55.4313C158.356 55.5365 158.461 55.5892 158.592 55.5892C158.837 55.5892 159.098 55.4564 159.377 55.1932C159.656 54.93 159.862 54.5501 159.992 54.0557L160.432 52.4032Z" fill="white"/>
<path d="M164.947 54.9918L165.059 55.2984C164.217 55.9599 163.507 56.2895 162.928 56.2895C162.621 56.2895 162.397 56.1796 162.257 55.9599C162.118 55.7402 162.047 55.4632 162.047 55.1268C162.047 54.5683 162.196 53.9939 162.493 53.4034C162.791 52.8129 163.15 52.3597 163.576 52.0461C163.908 51.8012 164.283 51.6799 164.7 51.6799C164.96 51.6799 165.16 51.7303 165.295 51.8287C165.43 51.9271 165.496 52.0484 165.496 52.1903C165.496 52.3002 165.462 52.3894 165.391 52.4581C165.32 52.5268 165.221 52.5611 165.093 52.5611C164.97 52.5611 164.809 52.5039 164.617 52.3917C164.416 52.2704 164.249 52.2109 164.114 52.2109C163.94 52.2109 163.768 52.2887 163.596 52.4467C163.425 52.6046 163.262 52.909 163.107 53.3599C162.951 53.8108 162.873 54.2662 162.873 54.7217C162.873 55.0581 162.939 55.3168 163.07 55.4999C163.166 55.6418 163.299 55.7104 163.473 55.7104C163.88 55.7127 164.375 55.4724 164.947 54.9918Z" fill="white"/>
<path d="M169.341 51.593L169.691 51.5198L169.293 52.861C169.135 53.3943 168.984 54.0099 168.842 54.7057C168.764 55.0834 168.725 55.3283 168.725 55.4381C168.725 55.548 168.769 55.6029 168.858 55.6029C168.915 55.6029 169.004 55.5663 169.128 55.4908C169.348 55.3603 169.558 55.1978 169.76 55.0033L169.929 55.2092C169.526 55.5777 169.267 55.7997 169.155 55.8776C168.929 56.0332 168.714 56.1476 168.508 56.2232C168.373 56.2735 168.242 56.2964 168.116 56.2964C168.025 56.2964 167.956 56.2758 167.91 56.2323C167.864 56.1911 167.842 56.127 167.842 56.0469C167.842 55.9943 167.855 55.921 167.883 55.8295L168.096 55.1085C167.791 55.4724 167.43 55.786 167.008 56.0469C166.75 56.2094 166.514 56.2918 166.299 56.2918C166.093 56.2918 165.937 56.2186 165.827 56.0744C165.679 55.8798 165.605 55.6258 165.605 55.3099C165.605 54.9346 165.706 54.518 165.905 54.058C166.104 53.598 166.372 53.1814 166.709 52.8061C167.045 52.4307 167.398 52.156 167.768 51.9775C168.054 51.8425 168.423 51.7761 168.872 51.7761C168.984 51.7761 169.1 51.783 169.217 51.7967L169.341 51.593ZM168.684 52.4032C168.494 52.3643 168.331 52.346 168.201 52.346C167.883 52.346 167.606 52.433 167.368 52.6092C167.13 52.7832 166.91 53.099 166.709 53.5522C166.505 54.0076 166.404 54.4608 166.404 54.9117C166.404 55.152 166.445 55.326 166.526 55.4313C166.608 55.5365 166.713 55.5892 166.844 55.5892C167.089 55.5892 167.349 55.4564 167.629 55.1932C167.908 54.93 168.114 54.5501 168.244 54.0557L168.684 52.4032Z" fill="white"/>
<path d="M171.771 50.8651L172.614 50.5424L172.232 52.0278H173.33L173.245 52.4054H172.147L171.684 54.1815C171.538 54.7148 171.465 55.0855 171.465 55.2938C171.465 55.3899 171.485 55.4586 171.527 55.4998C171.568 55.5433 171.623 55.5639 171.694 55.5639C171.804 55.5639 171.971 55.4975 172.197 55.367C172.495 55.1931 172.776 54.9986 173.046 54.7788L173.248 55.0237C172.474 55.6074 171.955 55.9644 171.694 56.0949C171.433 56.2253 171.222 56.2917 171.062 56.2917C170.932 56.2917 170.829 56.2436 170.751 56.1498C170.675 56.0537 170.636 55.898 170.636 55.6829C170.636 55.4288 170.703 55.0398 170.838 54.5156L171.378 52.4054H170.52L170.616 52.0278H171.476L171.771 50.8651Z" fill="white"/>
<path d="M173.929 52.9135L173.695 52.7327C174.048 52.3436 174.371 52.0667 174.661 51.9019C174.952 51.7371 175.201 51.6547 175.405 51.6547C175.517 51.6547 175.604 51.6799 175.664 51.728C175.723 51.7783 175.753 51.8447 175.753 51.9294C175.753 52.0324 175.638 52.4672 175.41 53.234C175.037 54.4882 174.849 55.2458 174.849 55.5044C174.849 55.5547 174.86 55.5959 174.885 55.628C174.911 55.6623 174.936 55.6783 174.966 55.6783C175.078 55.6783 175.368 55.4586 175.835 55.0215L176.041 55.2229C175.556 55.6783 175.204 55.9713 174.982 56.0972C174.76 56.2254 174.576 56.2871 174.435 56.2871C174.311 56.2871 174.213 56.2482 174.139 56.1704C174.066 56.0926 174.029 55.985 174.029 55.8477C174.029 55.406 174.295 54.3257 174.826 52.6068C174.851 52.5244 174.863 52.4535 174.863 52.3894C174.863 52.3185 174.831 52.2841 174.766 52.2841C174.696 52.2841 174.615 52.3116 174.526 52.3688C174.441 52.4283 174.24 52.6091 173.929 52.9135ZM176.014 49.4026C176.124 49.4026 176.213 49.4392 176.284 49.5102C176.355 49.5834 176.389 49.6749 176.389 49.7894C176.389 49.945 176.334 50.0823 176.227 50.2014C176.119 50.3204 175.998 50.3799 175.863 50.3799C175.757 50.3799 175.668 50.3433 175.597 50.2677C175.526 50.1922 175.492 50.0961 175.492 49.9771C175.492 49.8169 175.542 49.6818 175.645 49.572C175.751 49.4575 175.872 49.4026 176.014 49.4026Z" fill="white"/>
<path d="M178.993 51.6822C179.339 51.6822 179.627 51.8195 179.859 52.0965C180.087 52.3734 180.204 52.7556 180.204 53.2477C180.204 54.0327 179.927 54.7377 179.376 55.3602C178.824 55.985 178.24 56.2963 177.625 56.2963C177.247 56.2963 176.94 56.1727 176.709 55.9255C176.478 55.6784 176.361 55.3396 176.361 54.9116C176.361 54.1701 176.574 53.4834 176.998 52.854C177.533 52.0736 178.197 51.6822 178.993 51.6822ZM178.543 52.0804C178.243 52.0804 177.952 52.2956 177.671 52.7259C177.389 53.1561 177.249 53.7489 177.249 54.5042C177.249 54.9643 177.336 55.3259 177.51 55.5914C177.638 55.7859 177.808 55.8821 178.018 55.8821C178.316 55.8821 178.586 55.6989 178.831 55.3305C179.142 54.8521 179.298 54.2616 179.298 53.5544C179.298 53.0234 179.227 52.6458 179.083 52.4192C178.938 52.1926 178.758 52.0804 178.543 52.0804Z" fill="white"/>
<path d="M180.866 52.9296L180.686 52.7442C181.139 52.3116 181.5 52.0232 181.768 51.8813C182.036 51.7394 182.267 51.6685 182.457 51.6685C182.53 51.6685 182.59 51.6845 182.631 51.7165C182.674 51.7486 182.695 51.7852 182.695 51.8287C182.695 51.8607 182.686 51.9179 182.668 51.998L182.43 53.0646C182.789 52.6641 183.242 52.291 183.785 51.9454C184.073 51.7646 184.313 51.6753 184.499 51.6753C184.636 51.6753 184.744 51.7188 184.821 51.8081C184.899 51.8973 184.938 52.0232 184.938 52.1903C184.938 52.3002 184.922 52.4237 184.89 52.5611C184.833 52.7899 184.686 53.2912 184.446 54.0625C184.219 54.7834 184.107 55.2641 184.107 55.4998C184.107 55.5731 184.119 55.6257 184.139 55.6623C184.16 55.6989 184.19 55.7173 184.229 55.7173C184.332 55.7173 184.492 55.6188 184.711 55.4197C184.867 55.2778 185.023 55.1474 185.178 55.0283L185.311 55.2183C184.986 55.5776 184.647 55.866 184.297 56.0835C184.075 56.2254 183.89 56.294 183.746 56.294C183.611 56.294 183.508 56.246 183.432 56.1475C183.357 56.0491 183.32 55.8912 183.32 55.6738C183.32 55.3602 183.517 54.5752 183.908 53.3255C184.029 52.8792 184.089 52.6206 184.089 52.545C184.089 52.4352 184.023 52.3803 183.892 52.3803C183.75 52.3803 183.569 52.4558 183.345 52.6023C183.013 52.822 182.736 53.0806 182.512 53.3782C182.37 53.5681 182.251 53.8748 182.157 54.2914L181.727 56.1453H180.937C181.086 55.6143 181.214 55.1062 181.324 54.6209L181.796 52.6023C181.814 52.5199 181.823 52.4627 181.823 52.426C181.823 52.3299 181.786 52.2818 181.718 52.2818C181.661 52.2818 181.58 52.3185 181.473 52.394C181.262 52.5405 181.056 52.719 180.866 52.9296Z" fill="white"/>
<path d="M188.03 51.6822C188.344 51.6822 188.589 51.744 188.76 51.8653C188.932 51.9866 189.017 52.1285 189.017 52.2864C189.017 52.3825 188.98 52.4649 188.907 52.5359C188.834 52.6068 188.747 52.6412 188.644 52.6412C188.577 52.6412 188.518 52.6252 188.47 52.5954C188.419 52.5656 188.348 52.4901 188.257 52.3688C188.083 52.1399 187.911 52.0232 187.742 52.0232C187.598 52.0232 187.469 52.0781 187.357 52.1903C187.245 52.3024 187.19 52.4398 187.19 52.6068C187.19 52.751 187.225 52.8929 187.296 53.028C187.366 53.163 187.545 53.3827 187.831 53.6871C188.222 54.1037 188.419 54.4996 188.419 54.8727C188.419 55.2481 188.261 55.5754 187.943 55.8546C187.625 56.1338 187.215 56.2757 186.712 56.2757C186.291 56.2757 185.977 56.1887 185.773 56.0194C185.567 55.8477 185.467 55.6372 185.467 55.3854C185.467 55.2618 185.506 55.1588 185.584 55.0787C185.661 54.9986 185.757 54.9574 185.87 54.9574C185.968 54.9574 186.053 54.9894 186.124 55.0558C186.195 55.1222 186.229 55.1977 186.229 55.287C186.229 55.3213 186.227 55.3694 186.222 55.4243C186.22 55.4701 186.218 55.509 186.218 55.541C186.218 55.6578 186.266 55.7562 186.366 55.8386C186.462 55.921 186.593 55.9599 186.758 55.9599C186.948 55.9599 187.115 55.9278 187.259 55.8615C187.403 55.7951 187.515 55.6967 187.598 55.5639C187.678 55.4312 187.719 55.3007 187.719 55.1702C187.719 55.0444 187.68 54.9162 187.604 54.788C187.529 54.6621 187.357 54.4516 187.092 54.1586C186.723 53.7489 186.54 53.3553 186.54 52.9776C186.54 52.632 186.68 52.3276 186.959 52.069C187.245 51.8126 187.6 51.6822 188.03 51.6822Z" fill="white"/>
<path d="M189.62 54.9918C189.757 54.9918 189.874 55.0445 189.968 55.1475C190.062 55.2527 190.108 55.3832 190.108 55.5434C190.108 55.7723 190.053 55.9531 189.943 56.0836C189.833 56.214 189.696 56.2804 189.529 56.2804C189.391 56.2804 189.274 56.2323 189.181 56.1339C189.087 56.0378 189.041 55.9119 189.041 55.7608C189.041 55.5388 189.107 55.3443 189.238 55.1772C189.334 55.0536 189.462 54.9918 189.62 54.9918Z" fill="white"/>
<path d="M192.013 54.9918C192.15 54.9918 192.267 55.0445 192.361 55.1475C192.454 55.2527 192.5 55.3832 192.5 55.5434C192.5 55.7723 192.445 55.9531 192.335 56.0836C192.226 56.214 192.088 56.2804 191.921 56.2804C191.784 56.2804 191.667 56.2323 191.573 56.1339C191.479 56.0378 191.434 55.9119 191.434 55.7608C191.434 55.5388 191.5 55.3443 191.63 55.1772C191.727 55.0536 191.855 54.9918 192.013 54.9918Z" fill="white"/>
<path d="M194.403 54.9918C194.541 54.9918 194.657 55.0445 194.751 55.1475C194.845 55.2527 194.891 55.3832 194.891 55.5434C194.891 55.7723 194.836 55.9531 194.726 56.0836C194.616 56.214 194.479 56.2804 194.312 56.2804C194.174 56.2804 194.058 56.2323 193.964 56.1339C193.87 56.0378 193.824 55.9119 193.824 55.7608C193.824 55.5388 193.891 55.3443 194.021 55.1772C194.117 55.0536 194.245 54.9918 194.403 54.9918Z" fill="white"/>
<path d="M94.5039 35.8144C94.5039 35.7983 94.5039 35.7846 94.5062 35.7686C94.5222 35.4894 94.5405 33.3288 94.5817 32.7589C94.5886 32.649 98.0126 30.7883 101.604 31.3833C103.187 31.6466 104.183 32.1569 104.794 33.4547C105.405 34.7524 105.714 36.2859 105.714 38.0573C105.714 40.0119 105.341 41.5614 104.597 42.7081C103.853 43.8548 102.622 44.4269 100.908 44.4269C100.338 44.4269 99.7818 44.3377 99.237 44.1569L99.221 44.1523C98.5664 43.9349 97.8913 44.4224 97.8913 45.1113V56.1453C97.8913 57.1226 97.065 57.8985 96.09 57.8367C95.1974 57.7795 94.5039 57.0403 94.5039 56.1453V35.8144ZM98.2346 41.2227C98.4634 41.3234 98.7381 41.4149 99.0585 41.4996C99.3789 41.5843 99.7108 41.6255 100.056 41.6255C100.633 41.6255 101.091 41.4218 101.425 41.0121C101.762 40.6024 101.993 40.1149 102.121 39.545C102.249 38.9774 102.313 38.403 102.313 37.8262C102.313 37.1144 102.222 36.4918 102.036 35.9631C101.851 35.4344 101.604 35.0293 101.292 34.7501C100.979 34.4709 100.635 34.329 100.258 34.329C99.6399 34.329 99.1409 34.4846 98.7564 34.7982C98.4932 35.011 98.2758 35.2239 98.1018 35.4321C97.9599 35.6038 97.8913 35.8235 97.8913 36.0455V41.0556C97.8913 41.0693 98.0057 41.122 98.2346 41.2227Z" fill="white"/>
<path d="M199.789 35.8144C199.789 35.7983 199.789 35.7846 199.791 35.7686C199.807 35.4894 199.826 33.3288 199.867 32.7589C199.874 32.649 203.298 30.7883 206.889 31.3833C208.473 31.6466 209.468 32.1569 210.079 33.4547C210.69 34.7524 210.999 36.2859 210.999 38.0573C210.999 40.0119 210.626 41.5614 209.882 42.7081C209.139 43.8548 207.907 44.4269 206.193 44.4269C205.623 44.4269 205.067 44.3377 204.522 44.1569L204.506 44.1523C203.852 43.9349 203.176 44.4224 203.176 45.1113V56.1453C203.176 57.1226 202.35 57.8985 201.375 57.8367C200.483 57.7795 199.789 57.0403 199.789 56.1453V35.8144ZM203.52 41.2227C203.749 41.3234 204.023 41.4149 204.344 41.4996C204.664 41.5843 204.996 41.6255 205.342 41.6255C205.918 41.6255 206.376 41.4218 206.71 41.0121C207.047 40.6024 207.278 40.1149 207.406 39.545C207.534 38.9774 207.598 38.403 207.598 37.8262C207.598 37.1144 207.507 36.4918 207.321 35.9631C207.136 35.4344 206.889 35.0293 206.578 34.7501C206.264 34.4709 205.921 34.329 205.543 34.329C204.925 34.329 204.426 34.4846 204.042 34.7982C203.778 35.011 203.561 35.2239 203.387 35.4321C203.245 35.6038 203.176 35.8235 203.176 36.0455V41.0556C203.176 41.0693 203.291 41.122 203.52 41.2227Z" fill="white"/>
<path d="M111.072 40.2981C111.127 40.7261 111.239 41.0534 111.401 41.2777C111.566 41.502 111.804 41.6141 112.115 41.6141C112.443 41.6141 112.795 41.5363 113.166 41.3807C113.171 41.3784 113.173 41.3784 113.177 41.3761C113.647 41.1793 114.187 41.3876 114.386 41.8545L114.471 42.049C114.626 42.4129 114.53 42.8363 114.233 43.1018C113.892 43.4062 113.502 43.6694 113.065 43.8914C112.408 44.2233 111.752 44.3904 111.095 44.3904C110.133 44.3904 109.394 44.1569 108.877 43.6946C108.36 43.23 108.016 42.6441 107.842 41.9346C107.668 41.2251 107.584 40.4103 107.584 39.4902L107.572 18.8479C107.572 17.9713 108.236 17.2344 109.11 17.1497C110.113 17.0513 110.983 17.8386 110.983 18.8479V38.5907C110.989 39.2979 111.017 39.8701 111.072 40.2981Z" fill="white"/>
<path d="M125.899 40.3096C125.956 40.7376 126.066 41.0649 126.228 41.2892C126.393 41.5135 126.631 41.6256 126.942 41.6256C127.272 41.6256 127.624 41.5455 128.006 41.3853C128.011 41.383 128.013 41.383 128.018 41.3808C128.487 41.1816 129.027 41.3922 129.226 41.8614L129.309 42.0582C129.464 42.4267 129.366 42.8501 129.068 43.1179C128.723 43.4292 128.329 43.697 127.89 43.9213C127.233 44.2577 126.576 44.4271 125.919 44.4271C124.333 44.4271 123.287 43.7267 122.784 42.3237C122.392 42.9325 121.911 43.4269 121.348 43.8068C120.783 44.1868 120.129 44.3928 119.385 44.4248C119.289 44.4317 119.144 44.4362 118.952 44.4362C117.263 44.4362 116.114 43.7702 115.51 42.4427C114.906 41.1153 114.604 39.5955 114.604 37.8881C114.604 35.9267 114.974 34.3726 115.716 33.2259C116.457 32.0816 117.689 31.5071 119.41 31.5071C119.945 31.5071 120.495 31.6284 121.056 31.8733C121.616 32.1182 122.069 32.3951 122.413 32.7087C122.413 32.1479 122.896 31.7085 123.454 31.7634L124.953 31.9076C125.441 31.9534 125.814 32.3631 125.814 32.8529V38.5976C125.816 39.3094 125.844 39.8816 125.899 40.3096ZM120.264 34.32C119.687 34.32 119.229 34.5282 118.893 34.9448C118.556 35.3613 118.323 35.8534 118.19 36.4233C118.057 36.9932 117.991 37.5448 117.991 38.0804C118.007 39.0096 118.176 39.8015 118.501 40.4607C118.826 41.1175 119.311 41.4815 119.961 41.5547L120.129 41.5661C120.568 41.5661 120.998 41.4265 121.415 41.145C121.831 40.8658 122.163 40.5202 122.413 40.1128V35.3178C121.79 34.6518 121.074 34.32 120.264 34.32Z" fill="white"/>
<path d="M137.158 35.0775C136.863 34.5648 136.346 34.3085 135.609 34.3085C135.208 34.3085 134.837 34.3886 134.496 34.5488C134.155 34.709 133.874 34.8853 133.65 35.0775C133.425 35.2698 133.313 35.3774 133.313 35.4025V42.4313C133.313 43.3674 132.556 44.125 131.619 44.125C130.683 44.125 129.926 43.3674 129.926 42.4313V33.2305C129.926 32.5279 130.461 31.9397 131.162 31.871L131.821 31.8069C132.622 31.7291 133.315 32.3608 133.315 33.1664C133.315 33.1115 133.499 32.9398 133.869 32.656C134.238 32.3722 134.691 32.109 135.227 31.8687C135.762 31.6284 136.327 31.5071 136.92 31.5071C138.378 31.5071 139.424 31.9328 140.056 32.7865C140.687 33.6402 141.006 34.8944 141.006 36.5538V38.8723C141.013 39.5772 141.045 40.1219 141.102 40.5064C141.157 40.891 141.264 41.1725 141.42 41.3533C141.576 41.5341 141.811 41.6234 142.123 41.6234C142.235 41.6234 142.438 41.557 142.658 41.4677C143.178 41.2549 143.77 41.4998 143.99 42.0147C144.166 42.4267 144.052 42.9028 143.713 43.1957C143.338 43.5184 142.866 43.9007 142.603 44.0403C142.123 44.2966 141.594 44.4248 141.017 44.4248C139.71 44.4248 138.815 44.0105 138.332 43.182C137.847 42.3535 137.605 41.2778 137.605 39.9549V37.467C137.602 36.3867 137.453 35.5902 137.158 35.0775Z" fill="white"/>
<path d="M177.75 38.5976C177.75 39.3117 177.778 39.8815 177.835 40.3095C177.89 40.7375 178 41.0648 178.16 41.2891C178.32 41.5134 178.556 41.6256 178.87 41.6256C179.206 41.6256 179.563 41.5455 179.938 41.3853L179.95 41.3807C180.414 41.1816 180.957 41.4013 181.154 41.8659L181.243 42.0765C181.396 42.4335 181.3 42.8455 181.014 43.1087C180.671 43.4245 180.277 43.6946 179.838 43.9212C179.185 44.2576 178.531 44.427 177.874 44.427C176.567 44.427 175.654 44.0059 175.134 43.1659C174.613 42.3259 174.354 41.2548 174.354 39.9571V39.6321L174.342 34.3565H173.02V31.8091H174.342V18.8433C174.342 17.9347 175.057 17.184 175.965 17.1382C176.94 17.0902 177.755 17.8661 177.755 18.8433V31.8068H180.328L180.003 34.3542H177.744L177.755 38.4991V38.5976H177.75Z" fill="white"/>
<path d="M188.194 34.0796C187.707 34.0796 187.224 34.1986 186.753 34.4389C186.279 34.6793 185.894 34.9974 185.592 35.3934C185.29 35.7893 185.141 36.2081 185.141 36.6499V44.1226H181.754V33.4433C181.754 32.6102 182.388 31.9144 183.216 31.8343L183.372 31.8183C184.322 31.7268 185.141 32.4729 185.141 33.4273C185.51 32.8666 186.009 32.4065 186.638 32.0449C187.268 31.6856 187.993 31.5048 188.819 31.5048C188.92 31.5048 189.078 31.5276 189.256 31.5597C189.961 31.6924 190.431 32.363 190.305 33.068L190.3 33.0977C190.174 33.8141 189.485 34.2833 188.769 34.1506C188.531 34.1094 188.318 34.0796 188.194 34.0796Z" fill="white"/>
<path d="M195.522 40.3095C195.577 40.7375 195.689 41.0648 195.852 41.2891C196.017 41.5134 196.255 41.6255 196.566 41.6255C196.893 41.6255 197.246 41.5454 197.623 41.3852C197.628 41.3829 197.63 41.3829 197.635 41.3806C198.099 41.1815 198.637 41.3898 198.834 41.8544L198.923 42.0673C199.077 42.4312 198.981 42.8477 198.69 43.1132C198.347 43.4245 197.955 43.6946 197.513 43.9211C196.857 44.2576 196.2 44.427 195.543 44.427C194.582 44.427 193.842 44.1912 193.325 43.7174C192.808 43.246 192.465 42.6532 192.291 41.9391C192.119 41.2273 192.032 40.4102 192.032 39.4878V34.3565C191.375 34.3565 190.842 33.8232 190.842 33.1663V32.9969C190.842 32.3401 191.375 31.8068 192.032 31.8068H192.284L193.863 31.6443C194.703 31.5573 195.431 32.2165 195.431 33.0587V38.5952C195.438 39.3093 195.465 39.8815 195.522 40.3095ZM192.11 27.7465C192.419 27.4742 192.851 27.3369 193.412 27.3369C193.959 27.3369 194.385 27.4719 194.689 27.7397C194.994 28.0075 195.147 28.3828 195.147 28.8634C195.147 29.3281 194.994 29.6966 194.689 29.9689C194.385 30.2413 193.959 30.3763 193.412 30.3763C192.851 30.3763 192.416 30.2413 192.11 29.9735C191.801 29.7057 191.647 29.3349 191.647 28.8612C191.647 28.3897 191.801 28.0189 192.11 27.7465Z" fill="white"/>
<path d="M151.557 27.9526C151.557 27.1058 151.777 26.3345 152.221 25.6364C152.665 24.9383 153.313 24.3868 154.169 23.9771C155.025 23.5674 156.032 23.3614 157.188 23.3614C158.337 23.3614 159.328 23.5765 160.168 24.0045C161.005 24.4325 161.632 24.9933 162.047 25.6845C162.461 26.3757 162.669 27.0966 162.669 27.8428C162.669 28.8635 162.333 29.7516 161.657 30.5069C160.985 31.2622 159.991 32.0335 158.68 32.8162C159.135 33.3541 159.559 33.8599 159.95 34.3337C160.341 34.8074 160.719 35.2492 161.085 35.6589C161.449 36.0685 161.781 36.4187 162.083 36.7117C162.221 36.4576 162.431 35.9793 162.719 35.2766C163.006 34.5763 163.276 34.0705 163.525 33.7592C163.775 33.4502 164.129 33.2946 164.585 33.2946C165.013 33.2946 165.39 33.4479 165.718 33.7523C166.045 34.0567 166.21 34.4275 166.21 34.8669C166.21 35.2675 166.068 35.8351 165.786 36.5675C165.505 37.2999 165.095 38.1147 164.557 39.0073C164.894 39.298 165.429 39.7397 166.164 40.3325C166.899 40.9253 167.347 41.3281 167.517 41.5409C167.686 41.7561 167.768 42.0399 167.768 42.3946C167.768 42.8684 167.597 43.2667 167.256 43.5894C166.915 43.9121 166.535 44.0746 166.116 44.0746C165.688 44.0746 165.274 43.9373 164.873 43.6649C164.473 43.3925 163.621 42.7219 162.319 41.6554C161.726 42.2115 161.115 42.667 160.481 43.0218C159.849 43.3765 159.17 43.642 158.446 43.8137C157.721 43.9876 156.913 44.0723 156.02 44.0723C154.88 44.0723 153.86 43.9052 152.953 43.5734C152.047 43.2415 151.294 42.7929 150.692 42.2276C150.09 41.6622 149.644 41.0374 149.353 40.3485C149.062 39.6619 148.916 38.9615 148.916 38.252C148.916 37.5677 149.026 36.9428 149.243 36.3729C149.461 35.803 149.77 35.2881 150.166 34.8303C150.562 34.3703 151.049 33.9331 151.628 33.5189C152.207 33.1046 152.878 32.7018 153.645 32.3104C152.96 31.4544 152.445 30.6923 152.093 30.0217C151.74 29.3511 151.557 28.6621 151.557 27.9526ZM155.423 34.4962C154.494 35.034 153.8 35.5719 153.34 36.1097C152.88 36.6476 152.651 37.2839 152.651 38.0231C152.651 38.442 152.736 38.8425 152.903 39.2247C153.072 39.6069 153.317 39.9617 153.64 40.2913C153.963 40.6186 154.338 40.8703 154.768 41.042C155.196 41.2159 155.647 41.3006 156.121 41.3006C156.586 41.3006 157.036 41.2274 157.474 41.0832C157.911 40.9367 158.325 40.7307 158.716 40.4607C159.108 40.1929 159.513 39.8564 159.932 39.4559C159.122 38.7098 158.391 37.9682 157.746 37.2358C157.101 36.5034 156.325 35.5902 155.423 34.4962ZM156.817 30.7541C157.746 30.1613 158.417 29.6623 158.833 29.2572C159.247 28.8521 159.456 28.3623 159.456 27.7878C159.456 27.2225 159.247 26.7487 158.833 26.3665C158.419 25.9843 157.897 25.792 157.268 25.792C156.638 25.792 156.114 25.9889 155.691 26.3803C155.267 26.7716 155.054 27.2317 155.054 27.7604C155.054 28.0327 155.135 28.328 155.292 28.6415C155.453 28.9551 155.65 29.2687 155.888 29.5776C156.126 29.8889 156.435 30.2803 156.817 30.7541Z" fill="white"/>
<path d="M80.8117 76.0898C83.1995 76.0898 85.1352 74.1541 85.1352 71.7663C85.1352 69.3785 83.1995 67.4429 80.8117 67.4429C78.424 67.4429 76.4883 69.3785 76.4883 71.7663C76.4883 74.1541 78.424 76.0898 80.8117 76.0898Z" fill="white"/>
<path d="M42.7317 76.0898C45.1194 76.0898 47.0551 74.1541 47.0551 71.7663C47.0551 69.3785 45.1194 67.4429 42.7317 67.4429C40.3439 67.4429 38.4082 69.3785 38.4082 71.7663C38.4082 74.1541 40.3439 76.0898 42.7317 76.0898Z" fill="white"/>
<path d="M65.2637 65.1816H80.5388C84.2398 65.1816 87.238 62.181 87.238 58.4824V46.439C87.238 46.2353 86.9725 46.1598 86.865 46.3314C85.1026 49.2084 77.1698 61.1831 65.2042 64.7902C64.9845 64.8543 65.0326 65.1816 65.2637 65.1816Z" stroke="white" stroke-width="1.29756" stroke-miterlimit="10"/>
<path d="M79.8806 9.08203V9.07745C79.7799 9.07974 79.6769 9.07974 79.5762 9.08203H79.8806Z" fill="url(#paint0_linear_648_4077)"/>
<path d="M79.8806 9.08203V9.07745C79.7799 9.07974 79.6769 9.07974 79.5762 9.08203H79.8806Z" fill="url(#paint1_linear_648_4077)"/>
<path d="M42.2656 47.6497C47.2803 45.9446 51.9058 42.8479 55.6548 39.1561L60.6054 33.8073L60.626 33.7844C60.6878 33.7112 60.7473 33.6379 60.8045 33.5601C60.8846 33.4526 60.9647 33.3473 61.0517 33.2466C62.0427 32.0701 63.2237 30.5985 63.2375 30.5756C63.242 30.571 63.2741 30.5275 63.2993 30.4863L52.0043 26.378L53.6682 23.5606L66.3296 26.124L71.271 20.4341C72.1407 19.4637 73.5368 19.1341 74.7339 19.6514C74.862 19.7063 74.9902 19.7704 75.1184 19.8436C76.7251 20.766 76.5305 22.7412 75.377 24.1877L71.0673 29.8935L75.0497 41.7516C75.0726 41.8134 75.0795 41.8248 75.0955 41.8797L73.459 43.7931C73.2462 44.0312 72.983 44.3447 72.8479 44.4706L67.3961 33.8645C67.3961 33.8645 58.7378 47.9083 52.1279 53.1152" fill="url(#paint2_linear_648_4077)"/>
<path d="M90.015 17.5412C89.9464 13.0965 87.1015 9.85789 82.7391 9.20559C82.572 9.18042 82.4026 9.16211 82.2333 9.1438V9.09116H81.5055C80.9676 9.06598 80.4229 9.06827 79.8804 9.07742V9.082H79.576C79.4181 9.08429 79.2602 9.08658 79.1046 9.08887H77.7588C77.6878 9.08658 77.6215 9.08429 77.5597 9.082H72.7922H53.0563L52.6351 9.08887H42.2648V19.4066V47.6498C47.2795 45.9446 51.905 42.848 55.654 39.1562L60.6046 33.8074L60.6252 33.7845C60.687 33.7113 60.7465 33.638 60.8037 33.5602C60.8838 33.4526 60.9639 33.3473 61.0509 33.2466C62.0419 32.0702 63.2229 30.5986 63.2366 30.5757C63.2412 30.5711 63.2733 30.5276 63.2984 30.4864L52.0035 26.3781L53.6674 23.5606L66.3287 26.124L71.2702 20.4342C72.1399 19.4638 73.536 19.1342 74.733 19.6515C74.8612 19.7064 74.9894 19.7705 75.1176 19.8437C76.7243 20.7661 76.5297 22.7413 75.3762 24.1878L71.0665 29.8936L75.0489 41.7516C75.0718 41.8134 75.0786 41.8249 75.0947 41.8798L73.4582 43.7932C73.2454 44.0312 72.9822 44.3448 72.8471 44.4707L67.3953 33.8646C67.3953 33.8646 58.737 47.9084 52.127 53.1153C47.8471 56.2806 45.4828 57.7317 40.285 59.1668C39.5114 59.3796 38.7333 59.5673 37.9528 59.7298C35.1033 60.3249 30.3954 60.4782 27.5047 60.1486C11.3003 58.3016 3.93967 46.8853 1.45867 43.2714C1.18402 42.8708 0.556898 43.1386 0.66218 43.6124C2.70146 52.7331 13.9369 61.5997 21.2312 63.6252C21.5196 63.7282 21.8034 63.806 22.0803 63.8541C22.1009 63.8587 22.1215 63.8633 22.1444 63.8701C22.4831 63.9571 22.8196 64.0395 23.1492 64.1173C23.3895 64.1745 23.6321 64.2272 23.8747 64.2821C24.0029 64.3096 24.1287 64.337 24.2546 64.3645C30.6013 65.7103 35.941 65.2663 42.4365 65.0649C47.8723 64.8978 52.1179 64.1448 57.35 62.7464C61.7696 61.5654 65.9648 59.8305 69.8511 57.409C76.96 52.9803 82.2218 46.9425 85.6458 39.2798C88.7379 32.3517 90.1341 25.0918 90.015 17.5412Z" stroke="white" stroke-width="1.29756" stroke-miterlimit="10"/>
<path d="M67.8119 18.1432H37.1289V8.63341C37.1289 3.87281 41.5004 0.000244141 46.8767 0.000244141H67.8119C73.1859 0.000244141 77.5597 3.87281 77.5597 8.63341V9.51229C77.5597 14.2706 73.1859 18.1432 67.8119 18.1432ZM42.2626 13.5954H67.8119C70.3547 13.5954 72.4237 11.7621 72.4237 9.51001V8.63113C72.4237 6.37899 70.3547 4.5457 67.8119 4.5457H46.8767C44.3339 4.5457 42.2649 6.37899 42.2649 8.63113V13.5954H42.2626Z" fill="white"/>
<path d="M42.2626 9.55341H37.1289V47.6726H42.2626V9.55341Z" fill="url(#paint3_linear_648_4077)"/>
</g>
<defs>
<linearGradient id="paint0_linear_648_4077" x1="80.1583" y1="66.2637" x2="79.8518" y2="25.4744" gradientUnits="userSpaceOnUse">
<stop offset="0.00279385" stop-color="#FC691F"/>
<stop offset="0.2002" stop-color="#FA6822"/>
<stop offset="0.3656" stop-color="#F4632D"/>
<stop offset="0.4972" stop-color="#EC5D3B"/>
<stop offset="0.673" stop-color="#C63F7F"/>
<stop offset="1" stop-color="#8009FB"/>
</linearGradient>
<linearGradient id="paint1_linear_648_4077" x1="79.7318" y1="9.50457" x2="79.5363" y2="-16.5084" gradientUnits="userSpaceOnUse">
<stop offset="0.00279385" stop-color="#FC691F"/>
<stop offset="0.2002" stop-color="#FA6822"/>
<stop offset="0.3656" stop-color="#F4632D"/>
<stop offset="0.4972" stop-color="#EC5D3B"/>
<stop offset="0.673" stop-color="#C63F7F"/>
<stop offset="1" stop-color="#8009FB"/>
</linearGradient>
<linearGradient id="paint2_linear_648_4077" x1="51.0712" y1="49.3788" x2="70.1892" y2="25.452" gradientUnits="userSpaceOnUse">
<stop offset="0.00279385" stop-color="white" stop-opacity="0"/>
<stop offset="0.4385" stop-color="white"/>
<stop offset="1" stop-color="white"/>
</linearGradient>
<linearGradient id="paint3_linear_648_4077" x1="39.6963" y1="46.8682" x2="39.6963" y2="15.9135" gradientUnits="userSpaceOnUse">
<stop offset="0.00279385" stop-color="white" stop-opacity="0"/>
<stop offset="0.4385" stop-color="white"/>
<stop offset="1" stop-color="white"/>
</linearGradient>
<clipPath id="clip0_648_4077">
<rect width="211" height="76.0918" fill="white"/>
</clipPath>
</defs>
</svg>
