<svg width="30" height="30" viewBox="0 0 30 30" fill="none" xmlns="http://www.w3.org/2000/svg">
<g clip-path="url(#clip0_522_612)">
<path d="M25.93 4.33273C23.3027 2.11044 19.5463 0.812178 14.9528 0.813233C10.5942 0.813233 6.87246 2.04259 4.21096 4.23575C2.88076 5.33064 1.8228 6.66692 1.10197 8.18661C0.380217 9.70589 -0.00111085 11.4047 2.43069e-06 13.2083C-0.00111085 15.3888 0.455159 17.4028 1.3776 19.1601C2.25592 20.8396 3.56297 22.2679 5.22715 23.3848C4.83369 25.0412 4.28045 27.4085 4.28045 27.4096C4.25514 27.5159 4.2419 27.6267 4.24301 27.7391C4.24196 28.1838 4.44914 28.612 4.80944 28.888L4.81166 28.8897V28.8902C5.06959 29.0864 5.38031 29.1867 5.69115 29.1867C5.92483 29.1867 6.16172 29.13 6.37553 29.0148L6.39651 29.0038L6.41742 28.9911C6.41854 28.9906 6.71502 28.8148 7.17129 28.5448C7.85455 28.1403 8.896 27.5248 9.82506 26.9777C10.2891 26.7043 10.7255 26.4481 11.0737 26.2448C11.4208 26.0421 11.6875 25.8872 11.7868 25.8326L11.7912 25.8299L11.7977 25.8261C13.0927 25.0921 14.1242 24.9686 14.953 24.9642C18.3925 24.9593 22.0552 24.2925 24.9801 22.467C26.4392 21.5528 27.7088 20.3334 28.6015 18.7723C29.4964 17.2123 30.0011 15.3239 30.0001 13.1379C30.0066 9.69985 28.5595 6.54956 25.93 4.33273ZM26.6431 17.6507C26.1262 18.5517 25.4496 19.3099 24.6373 19.9524C23.4195 20.9151 21.891 21.6099 20.2147 22.0579C18.5391 22.507 16.7195 22.7076 14.9529 22.707C13.8684 22.7026 12.3531 22.9071 10.6901 23.8604V23.8598C10.506 23.9623 10.0961 24.2009 9.55606 24.5172C8.78133 24.9718 7.76192 25.573 6.91113 26.0766C7.11832 25.1922 7.35973 24.1678 7.53932 23.4157V23.4145C7.56908 23.2889 7.59111 23.1527 7.59111 22.9979C7.59334 22.7797 7.53709 22.5136 7.41153 22.2921C7.31778 22.1262 7.19766 21.9956 7.09301 21.9064C6.93211 21.7725 6.81199 21.7146 6.74473 21.6777L6.67641 21.643L6.66867 21.6386C5.19522 20.6892 4.11076 19.51 3.37688 18.112C2.64287 16.7118 2.25715 15.0779 2.25715 13.2083C2.25715 11.7199 2.56682 10.365 3.14098 9.15435C4.00278 7.34146 5.46522 5.83765 7.46438 4.76591C9.46137 3.69634 11.9994 3.07038 14.953 3.07038C19.1297 3.07149 22.3318 4.24407 24.4721 6.05585C26.609 7.87372 27.7353 10.3214 27.743 13.1377C27.7407 14.9837 27.3285 16.4489 26.6431 17.6507Z" fill="white"/>
<path d="M7.91242 11.553C6.95863 11.553 6.18555 12.3267 6.18555 13.2805C6.18555 14.2343 6.95863 15.0074 7.91242 15.0074C8.8668 15.0074 9.63988 14.2343 9.63988 13.2805C9.63994 12.3267 8.86685 11.553 7.91242 11.553Z" fill="white"/>
<path d="M14.6489 11.553C13.695 11.553 12.9219 12.3267 12.9219 13.2805C12.9219 14.2343 13.695 15.0074 14.6489 15.0074C15.6032 15.0074 16.3763 14.2343 16.3763 13.2805C16.3763 12.3267 15.6032 11.553 14.6489 11.553Z" fill="white"/>
<path d="M21.3857 11.553C20.4319 11.553 19.6582 12.3267 19.6582 13.2805C19.6582 14.2343 20.4319 15.0074 21.3857 15.0074C22.34 15.0074 23.1132 14.2343 23.1132 13.2805C23.1132 12.3267 22.34 11.553 21.3857 11.553Z" fill="white"/>
</g>
<defs>
<clipPath id="clip0_522_612">
<rect width="30" height="30" fill="white"/>
</clipPath>
</defs>
</svg>
