<svg width="33" height="33" viewBox="0 0 33 33" fill="none" xmlns="http://www.w3.org/2000/svg">
<path fill-rule="evenodd" clip-rule="evenodd" d="M22.6872 11.7868C22.6872 13.3499 22.0663 14.8489 20.9611 15.9541C19.8559 17.0593 18.3568 17.6802 16.7938 17.6802C15.2308 17.6802 13.7318 17.0593 12.6265 15.9541C11.5213 14.8489 10.9004 13.3499 10.9004 11.7868C10.9004 10.2238 11.5213 8.72477 12.6265 7.61954C13.7318 6.51431 15.2308 5.8934 16.7938 5.8934C18.3568 5.8934 19.8559 6.51431 20.9611 7.61954C22.0663 8.72477 22.6872 10.2238 22.6872 11.7868ZM19.7405 11.7868C19.7405 12.5683 19.4301 13.3178 18.8774 13.8705C18.3248 14.4231 17.5753 14.7335 16.7938 14.7335C16.0123 14.7335 15.2628 14.4231 14.7102 13.8705C14.1576 13.3178 13.8471 12.5683 13.8471 11.7868C13.8471 11.0053 14.1576 10.2558 14.7102 9.70318C15.2628 9.15057 16.0123 8.84011 16.7938 8.84011C17.5753 8.84011 18.3248 9.15057 18.8774 9.70318C19.4301 10.2558 19.7405 11.0053 19.7405 11.7868Z" fill="url(#paint0_linear_384_5049)"/>
<path d="M16.7928 0C7.84221 0 0.585938 7.25627 0.585938 16.2069C0.585938 25.1575 7.84221 32.4138 16.7928 32.4138C25.7435 32.4138 32.9997 25.1575 32.9997 16.2069C32.9997 7.25627 25.7435 0 16.7928 0ZM3.53265 16.2069C3.53265 19.2862 4.58315 22.1209 6.34381 24.3722C7.58029 22.7484 9.17545 21.4325 11.0047 20.5272C12.8339 19.622 14.8476 19.1518 16.8886 19.1536C18.9032 19.1517 20.8916 19.6096 22.7024 20.4926C24.5131 21.3755 26.0985 22.6601 27.3376 24.2485C28.6142 22.5741 29.4738 20.6199 29.8451 18.5475C30.2165 16.475 30.089 14.3439 29.4732 12.3305C28.8575 10.3171 27.7711 8.47922 26.3041 6.96902C24.837 5.45882 23.0314 4.31967 21.0367 3.64583C19.0419 2.97199 16.9154 2.78283 14.8331 3.094C12.7507 3.40518 10.7724 4.20774 9.0618 5.43528C7.35121 6.66283 5.95751 8.28006 4.99602 10.1532C4.03454 12.0263 3.53291 14.1014 3.53265 16.2069ZM16.7928 29.4671C13.7488 29.4717 10.7967 28.4245 8.43597 26.5027C9.38618 25.1424 10.6509 24.0318 12.1226 23.2653C13.5943 22.4988 15.2293 22.0991 16.8886 22.1003C18.5272 22.099 20.1425 22.4886 21.6003 23.2369C23.0581 23.9851 24.3163 25.0704 25.2705 26.4025C22.8915 28.3867 19.8907 29.4714 16.7928 29.4671Z" fill="url(#paint1_linear_384_5049)"/>
<path d="M16.7928 0C7.84221 0 0.585938 7.25627 0.585938 16.2069C0.585938 25.1575 7.84221 32.4138 16.7928 32.4138C25.7435 32.4138 32.9997 25.1575 32.9997 16.2069C32.9997 7.25627 25.7435 0 16.7928 0ZM3.53265 16.2069C3.53265 19.2862 4.58315 22.1209 6.34381 24.3722C7.58029 22.7484 9.17545 21.4325 11.0047 20.5272C12.8339 19.622 14.8476 19.1518 16.8886 19.1536C18.9032 19.1517 20.8916 19.6096 22.7024 20.4926C24.5131 21.3755 26.0985 22.6601 27.3376 24.2485C28.6142 22.5741 29.4738 20.6199 29.8451 18.5475C30.2165 16.475 30.089 14.3439 29.4732 12.3305C28.8575 10.3171 27.7711 8.47922 26.3041 6.96902C24.837 5.45882 23.0314 4.31967 21.0367 3.64583C19.0419 2.97199 16.9154 2.78283 14.8331 3.094C12.7507 3.40518 10.7724 4.20774 9.0618 5.43528C7.35121 6.66283 5.95751 8.28006 4.99602 10.1532C4.03454 12.0263 3.53291 14.1014 3.53265 16.2069ZM16.7928 29.4671C13.7488 29.4717 10.7967 28.4245 8.43597 26.5027C9.38618 25.1424 10.6509 24.0318 12.1226 23.2653C13.5943 22.4988 15.2293 22.0991 16.8886 22.1003C18.5272 22.099 20.1425 22.4886 21.6003 23.2369C23.0581 23.9851 24.3163 25.0704 25.2705 26.4025C22.8915 28.3867 19.8907 29.4714 16.7928 29.4671Z" stroke="white"/>
<defs>
<linearGradient id="paint0_linear_384_5049" x1="16.7938" y1="5.8934" x2="16.7938" y2="38.4545" gradientUnits="userSpaceOnUse">
<stop stop-color="#FBFBFB"/>
<stop offset="1" stop-color="#FBFBFB" stop-opacity="0"/>
</linearGradient>
<linearGradient id="paint1_linear_384_5049" x1="16.7928" y1="1.20751e-08" x2="16.7928" y2="89.5431" gradientUnits="userSpaceOnUse">
<stop stop-color="#FBFBFB"/>
<stop offset="1" stop-color="#FBFBFB" stop-opacity="0"/>
</linearGradient>
</defs>
</svg>
