<svg width="28" height="28" viewBox="0 0 28 28" fill="none" xmlns="http://www.w3.org/2000/svg">
<path d="M9.12313 5.14249C9.12313 7.01888 7.60201 8.53999 5.72563 8.53999C3.84924 8.53999 2.32812 7.01888 2.32812 5.14249C2.32812 3.2661 3.84924 1.74499 5.72563 1.74499C7.60201 1.74499 9.12313 3.2661 9.12313 5.14249Z" fill="white"/>
<path d="M26.1114 22.1298C26.1114 24.0062 24.5903 25.5273 22.7139 25.5273C20.8375 25.5273 19.3164 24.0062 19.3164 22.1298C19.3164 20.2533 20.8375 18.7323 22.7139 18.7323C24.5903 18.7323 26.1114 20.2533 26.1114 22.1298Z" fill="white"/>
<path d="M15.9186 7.69062C15.9186 6.28332 17.0594 5.14249 18.4667 5.14249C19.874 5.14249 21.0148 6.28332 21.0148 7.69062V15.335H24.4123V7.69062C24.4123 4.40693 21.7504 1.74499 18.4667 1.74499C15.183 1.74499 12.5211 4.40693 12.5211 7.69062V19.5819C12.5211 20.9891 11.3803 22.13 9.97297 22.13C8.56567 22.13 7.42484 20.9891 7.42484 19.5819V11.9375H4.02734V19.5819C4.02734 22.8656 6.68929 25.5275 9.97297 25.5275C13.2567 25.5275 15.9186 22.8656 15.9186 19.5819V7.69062Z" fill="white"/>
</svg>
