<svg width="40" height="40" viewBox="0 0 40 40" fill="none" xmlns="http://www.w3.org/2000/svg">
<path d="M16.0154 9.76697C13.7413 10.6757 12.6043 11.13 12.4671 12.0721C12.3299 13.0142 13.2834 13.8201 15.1904 15.432L15.6838 15.849C16.2257 16.307 16.4966 16.536 16.6519 16.8482C16.8073 17.1604 16.8294 17.5202 16.8736 18.2402L16.9139 18.8955C17.0694 21.429 17.1473 22.6957 17.9706 23.1324C18.7939 23.569 19.8174 22.8865 21.8644 21.5215L22.3939 21.1684C22.9756 20.7805 23.2664 20.5865 23.5991 20.5334C23.9318 20.48 24.2686 20.5734 24.9421 20.76L25.5553 20.93C27.9256 21.587 29.1108 21.9155 29.7568 21.2434C30.4028 20.5712 30.0818 19.3435 29.4399 16.888M29.9976 13.0587C31.3068 10.9314 31.9614 9.86775 31.5374 9.01562C31.1134 8.16347 29.8916 8.08719 27.4478 7.93464L26.8156 7.89517C26.1211 7.85182 25.7739 7.83015 25.4724 7.67017C25.1708 7.5102 24.9489 7.23004 24.5054 6.66972L24.1016 6.15961C22.5404 4.18781 21.7599 3.20191 20.8518 3.34746C19.9438 3.49299 19.5096 4.67357 18.6411 7.03476" stroke="white" stroke-width="2.5" stroke-linecap="round"/>
<path d="M12.4111 12.0687C8.51939 14.9153 5.53984 20.3597 7.08106 30.0007C8.44534 25.982 12.5578 22.7632 17.1517 21.2139" stroke="white" stroke-width="2.5" stroke-linecap="round" stroke-linejoin="round"/>
<path d="M17.1343 26.6666C17.1343 26.6666 18.1888 28.9846 19.4888 29.782C20.7888 30.5791 23.333 30.468 23.333 30.468C23.333 30.468 21.015 31.5225 20.2177 32.8225C19.4205 34.1225 19.5317 36.6666 19.5317 36.6666C19.5317 36.6666 18.4772 34.3486 17.1772 33.5513C15.8772 32.7541 13.333 32.8653 13.333 32.8653C13.333 32.8653 15.651 31.8108 16.4483 30.5108C17.2455 29.2108 17.1343 26.6666 17.1343 26.6666Z" stroke="white" stroke-width="1.66667" stroke-linejoin="round"/>
<path d="M30.7995 25C30.7995 25 30.0965 26.5453 29.2298 27.0768C28.3632 27.6083 26.667 27.5342 26.667 27.5342C26.667 27.5342 28.2123 28.2372 28.7438 29.1038C29.2753 29.9705 29.2012 31.6667 29.2012 31.6667C29.2012 31.6667 29.9042 30.1213 30.7708 29.5898C31.6375 29.0583 33.3337 29.1325 33.3337 29.1325C33.3337 29.1325 31.7883 28.4295 31.2568 27.5628C30.7253 26.6962 30.7995 25 30.7995 25Z" stroke="white" stroke-width="1.66667" stroke-linejoin="round"/>
</svg>
