<svg width="18" height="19" viewBox="0 0 18 19" fill="none" xmlns="http://www.w3.org/2000/svg">
<path d="M9.98662 12.728L8.77644 13.3363C8.52425 13.4546 8.37344 13.7072 8.37401 13.9765C8.37458 14.2458 8.52659 14.4978 8.77915 14.6151L9.99189 15.2183C10.0087 15.2182 10.0088 15.2351 10.0088 15.2519L10.2136 16.5976C10.2478 16.8668 10.4334 17.085 10.7027 17.1686C10.9554 17.2522 11.2412 17.1843 11.4259 16.982L12.3661 16.004C12.3829 15.9871 12.3829 15.9871 12.3998 15.9871L13.7464 16.2198C14.0158 16.2698 14.2847 16.1514 14.4357 15.9323C14.6035 15.7131 14.6197 15.4271 14.4846 15.1918L13.8426 13.9985L13.8426 13.9648L14.4794 12.752C14.5297 12.6509 14.5631 12.5331 14.5629 12.4153C14.5625 12.2638 14.5118 12.1293 14.4273 11.9949C14.2586 11.7765 14.006 11.6592 13.7368 11.7103L12.3912 11.9487C12.3744 11.9488 12.3744 11.9488 12.3575 11.932L11.4131 10.958C11.2276 10.7564 10.9415 10.6897 10.6892 10.7744C10.4369 10.8591 10.2524 11.0782 10.2025 11.3475L10.0034 12.694C10.0034 12.7111 10.0034 12.728 9.98662 12.728L9.98662 12.728ZM10.8924 11.4304C10.9092 11.4304 10.9261 11.4303 10.9261 11.4472L11.8705 12.4212C12.0392 12.5891 12.2748 12.6559 12.4935 12.6218L13.8391 12.3833C13.8391 12.3833 13.856 12.3833 13.8728 12.4001C13.8897 12.4169 13.8729 12.4338 13.8729 12.4338L13.2361 13.6466C13.1858 13.7477 13.1524 13.8655 13.1526 13.9833C13.1529 14.1011 13.1867 14.2021 13.2375 14.3198L13.8795 15.5299C13.8795 15.5299 13.8963 15.5467 13.8795 15.5635C13.8627 15.5804 13.8459 15.5804 13.8459 15.5804L12.4993 15.3477C12.2636 15.3145 12.0283 15.3823 11.8771 15.5509L10.9369 16.5289C10.9369 16.5289 10.9201 16.5458 10.9032 16.5458C10.8864 16.5459 10.8864 16.529 10.8695 16.5122L10.6647 15.1665C10.6306 14.931 10.4787 14.7295 10.2766 14.6289L9.06387 14.0258C9.06387 14.0258 9.04701 14.009 9.04697 13.9921C9.04694 13.9753 9.06373 13.9585 9.06373 13.9585L10.2739 13.3501C10.4756 13.2487 10.6266 13.0465 10.6597 12.8109L10.8588 11.4644C10.8756 11.4472 10.8756 11.4304 10.8924 11.4304L10.8924 11.4304Z" fill="white"/>
<path d="M5.53155 6.29297C5.346 6.09141 5.0599 6.0247 4.80762 6.10938C4.55534 6.19406 4.37081 6.41324 4.32091 6.68249L4.12181 8.02904C4.12184 8.04587 4.10501 8.04591 4.10505 8.06274L2.87804 8.67122C2.62585 8.78956 2.47504 9.04219 2.47561 9.31148C2.47618 9.58077 2.62818 9.83274 2.88075 9.95004L4.11029 10.5364C4.12712 10.5363 4.12716 10.5531 4.12719 10.57L4.332 11.9157C4.36623 12.1849 4.55182 12.4031 4.82113 12.4867C5.07375 12.5703 5.35958 12.5024 5.54428 12.3001L6.48454 11.3221C6.50134 11.3052 6.50134 11.3052 6.51817 11.3052L7.86479 11.5379C8.13417 11.5878 8.40306 11.4695 8.55406 11.2504C8.72189 11.0312 8.73812 10.7452 8.60298 10.5099L7.96104 9.31657L7.96097 9.28291L8.59781 8.0701C8.64809 7.96902 8.68149 7.85113 8.68125 7.73333C8.68092 7.58186 8.63015 7.44734 8.54572 7.313C8.37696 7.09457 8.12439 6.9773 7.85524 7.02836L6.50961 7.26682C6.49278 7.26686 6.49278 7.26686 6.47592 7.25006L5.53155 6.29297ZM5.989 7.73909C6.15766 7.90704 6.39329 7.97385 6.61201 7.93973L7.95763 7.70127C7.95763 7.70127 7.97446 7.70123 7.99133 7.71802C8.00819 7.73482 7.9914 7.75168 7.9914 7.75168L7.35455 8.9645C7.30428 9.06558 7.27087 9.18346 7.27112 9.30126C7.27137 9.41907 7.30524 9.51998 7.35598 9.63767L7.99795 10.8478C7.99795 10.8478 8.01482 10.8646 7.99803 10.8814C7.98123 10.8983 7.9644 10.8983 7.9644 10.8983L6.61778 10.6656C6.3821 10.6324 6.14677 10.7002 5.99563 10.8688L5.05536 11.8468C5.05536 11.8468 5.03857 11.8637 5.02174 11.8637C5.00491 11.8638 5.00488 11.847 4.98801 11.8302L4.7832 10.4845C4.74905 10.2489 4.59715 10.0474 4.39511 9.94687L3.18237 9.34369C3.18237 9.34369 3.1655 9.3269 3.16547 9.31007C3.16543 9.29324 3.18223 9.27637 3.18223 9.27637L4.3924 8.66806C4.59414 8.56666 4.74505 8.36438 4.77821 8.12883L4.97732 6.78228C4.97732 6.78228 4.97728 6.76545 5.01091 6.74855C5.02774 6.74851 5.04457 6.74848 5.0446 6.76531L5.989 7.73909Z" fill="white"/>
<path d="M11.3936 1.58612C11.208 1.38456 10.9219 1.31785 10.6697 1.40253C10.4174 1.48721 10.2328 1.70639 10.183 1.97564L9.98385 3.32219C9.98388 3.33902 9.96705 3.33906 9.96709 3.35589L8.75691 3.9642C8.50472 4.08254 8.35391 4.33517 8.35448 4.60447C8.35505 4.87376 8.50705 5.12573 8.75962 5.24302L9.97236 5.8462C9.98919 5.84617 9.98923 5.863 9.98926 5.87983L10.1941 7.22552C10.2283 7.49472 10.4139 7.71297 10.6832 7.79657C10.9358 7.88018 11.2217 7.81225 11.4064 7.60991L12.3465 6.63218C12.3633 6.61531 12.3633 6.61531 12.3801 6.61528L13.7267 6.84804C13.9961 6.89796 14.265 6.77958 14.416 6.56048C14.5838 6.34133 14.6001 6.05533 14.4649 5.81999L13.823 4.62669L13.8229 4.59303L14.4598 3.38022C14.51 3.27913 14.5434 3.16125 14.5432 3.04345C14.5429 2.89198 14.4921 2.75745 14.4077 2.62312C14.2389 2.40469 13.9863 2.28742 13.7172 2.33847L12.3716 2.57694C12.3547 2.57697 12.3547 2.57697 12.3379 2.56018L11.3936 1.58612ZM11.8677 3.03221C12.0364 3.20015 12.272 3.26697 12.4907 3.23285L13.8364 2.99438C13.8364 2.99438 13.8532 2.99435 13.8701 3.01114C13.8869 3.02793 13.8701 3.0448 13.8701 3.0448L13.2333 4.25761C13.183 4.35869 13.1496 4.47657 13.1499 4.59438C13.1501 4.71218 13.184 4.81309 13.2347 4.93079L13.8767 6.12396C13.8767 6.12396 13.8935 6.14076 13.8767 6.15762C13.8599 6.17448 13.8431 6.17452 13.8431 6.17452L12.4965 5.94176C12.2608 5.9086 12.0255 5.97641 11.8743 6.14503L10.9173 7.1399C10.9173 7.1399 10.9005 7.15676 10.8836 7.1568C10.8668 7.15683 10.8668 7.14 10.8499 7.12321L10.6451 5.77752C10.611 5.54197 10.4591 5.34046 10.257 5.23992L9.04427 4.63674C9.04427 4.63674 9.02741 4.61995 9.02737 4.60312C9.02734 4.58629 9.04413 4.56942 9.04413 4.56942L10.2543 3.96111C10.456 3.85971 10.607 3.65743 10.6401 3.42188L10.8392 2.07533C10.8392 2.07533 10.8392 2.0585 10.8728 2.0416C10.8896 2.04156 10.9065 2.04153 10.9065 2.05836L11.8677 3.03221Z" fill="white"/>
</svg>
