<svg width="36" height="36" viewBox="0 0 36 36" fill="none" xmlns="http://www.w3.org/2000/svg">
<path d="M22.266 30H9.75C7.6815 30 6 28.3185 6 26.25C6 24.1815 7.6815 22.5 9.75 22.5H20.25C23.145 22.5 25.5 20.145 25.5 17.25C25.5 14.355 23.145 12 20.25 12H12.9585C12.4076 13.0798 11.7255 14.0875 10.9275 15H20.25C21.4905 15 22.5 16.0095 22.5 17.25C22.5 18.4905 21.4905 19.5 20.25 19.5H9.75C6.0285 19.5 3 22.5285 3 26.25C3 29.9715 6.0285 33 9.75 33H24.1395C23.4034 32.0741 22.7749 31.0677 22.266 30ZM7.5 3C5.019 3 3 5.019 3 7.5C3 12.282 7.5 15 7.5 15C7.5 15 12 12.2805 12 7.5C12 5.019 9.981 3 7.5 3ZM7.5 9.75C7.20443 9.7499 6.91177 9.69159 6.63873 9.57838C6.3657 9.46518 6.11763 9.29931 5.9087 9.09024C5.69977 8.88117 5.53406 8.63299 5.42104 8.35988C5.30802 8.08677 5.2499 7.79407 5.25 7.4985C5.2501 7.20293 5.30841 6.91027 5.42162 6.63723C5.53482 6.3642 5.70069 6.11613 5.90976 5.9072C6.11883 5.69827 6.36701 5.53256 6.64012 5.41954C6.91323 5.30652 7.20593 5.2484 7.5015 5.2485C8.09844 5.2487 8.67084 5.48602 9.0928 5.90826C9.51476 6.3305 9.7517 6.90306 9.7515 7.5C9.7513 8.09694 9.51398 8.66934 9.09174 9.0913C8.6695 9.51326 8.09694 9.7502 7.5 9.75Z" fill="white"/>
<path d="M28.5 21C26.019 21 24 23.019 24 25.5C24 30.282 28.5 33 28.5 33C28.5 33 33 30.2805 33 25.5C33 23.019 30.981 21 28.5 21ZM28.5 27.75C28.2044 27.7499 27.9118 27.6916 27.6387 27.5784C27.3657 27.4652 27.1176 27.2993 26.9087 27.0902C26.6998 26.8812 26.5341 26.633 26.421 26.3599C26.308 26.0868 26.2499 25.7941 26.25 25.4985C26.2501 25.2029 26.3084 24.9103 26.4216 24.6372C26.5348 24.3642 26.7007 24.1161 26.9098 23.9072C27.1188 23.6983 27.367 23.5326 27.6401 23.4195C27.9132 23.3065 28.2059 23.2484 28.5015 23.2485C29.0984 23.2487 29.6708 23.486 30.0928 23.9083C30.5148 24.3305 30.7517 24.9031 30.7515 25.5C30.7513 26.0969 30.514 26.6693 30.0917 27.0913C29.6695 27.5133 29.0969 27.7502 28.5 27.75Z" fill="white"/>
</svg>
